G04 #@! TF.GenerationSoftware,KiCad,Pcbnew,(6.0.9)*
G04 #@! TF.CreationDate,2023-07-15T07:21:25-07:00*
G04 #@! TF.ProjectId,canbuz-1977-vw-bus-ecu,63616e62-757a-42d3-9139-37372d76772d,rev?*
G04 #@! TF.SameCoordinates,Original*
G04 #@! TF.FileFunction,Legend,Top*
G04 #@! TF.FilePolarity,Positive*
%FSLAX46Y46*%
G04 Gerber Fmt 4.6, Leading zero omitted, Abs format (unit mm)*
G04 Created by KiCad (PCBNEW (6.0.9)) date 2023-07-15 07:21:25*
%MOMM*%
%LPD*%
G01*
G04 APERTURE LIST*
G04 Aperture macros list*
%AMRoundRect*
0 Rectangle with rounded corners*
0 $1 Rounding radius*
0 $2 $3 $4 $5 $6 $7 $8 $9 X,Y pos of 4 corners*
0 Add a 4 corners polygon primitive as box body*
4,1,4,$2,$3,$4,$5,$6,$7,$8,$9,$2,$3,0*
0 Add four circle primitives for the rounded corners*
1,1,$1+$1,$2,$3*
1,1,$1+$1,$4,$5*
1,1,$1+$1,$6,$7*
1,1,$1+$1,$8,$9*
0 Add four rect primitives between the rounded corners*
20,1,$1+$1,$2,$3,$4,$5,0*
20,1,$1+$1,$4,$5,$6,$7,0*
20,1,$1+$1,$6,$7,$8,$9,0*
20,1,$1+$1,$8,$9,$2,$3,0*%
G04 Aperture macros list end*
%ADD10C,0.080000*%
%ADD11C,0.120000*%
%ADD12RoundRect,0.237500X-0.237500X0.250000X-0.237500X-0.250000X0.237500X-0.250000X0.237500X0.250000X0*%
%ADD13RoundRect,0.250000X0.337500X0.475000X-0.337500X0.475000X-0.337500X-0.475000X0.337500X-0.475000X0*%
%ADD14RoundRect,0.250000X-0.337500X-0.475000X0.337500X-0.475000X0.337500X0.475000X-0.337500X0.475000X0*%
%ADD15RoundRect,0.237500X-0.250000X-0.237500X0.250000X-0.237500X0.250000X0.237500X-0.250000X0.237500X0*%
%ADD16RoundRect,0.237500X0.250000X0.237500X-0.250000X0.237500X-0.250000X-0.237500X0.250000X-0.237500X0*%
%ADD17RoundRect,0.250000X0.475000X-0.337500X0.475000X0.337500X-0.475000X0.337500X-0.475000X-0.337500X0*%
%ADD18R,1.700000X1.700000*%
%ADD19C,1.700000*%
%ADD20R,1.800000X2.500000*%
%ADD21RoundRect,0.150000X0.587500X0.150000X-0.587500X0.150000X-0.587500X-0.150000X0.587500X-0.150000X0*%
%ADD22RoundRect,0.137500X0.137500X1.112500X-0.137500X1.112500X-0.137500X-1.112500X0.137500X-1.112500X0*%
%ADD23RoundRect,0.265000X2.385000X2.485000X-2.385000X2.485000X-2.385000X-2.485000X2.385000X-2.485000X0*%
%ADD24RoundRect,0.150000X-0.150000X0.587500X-0.150000X-0.587500X0.150000X-0.587500X0.150000X0.587500X0*%
%ADD25R,2.500000X1.800000*%
%ADD26RoundRect,0.237500X0.237500X-0.250000X0.237500X0.250000X-0.237500X0.250000X-0.237500X-0.250000X0*%
%ADD27RoundRect,0.150000X-0.725000X-0.150000X0.725000X-0.150000X0.725000X0.150000X-0.725000X0.150000X0*%
%ADD28RoundRect,0.150000X0.150000X-0.725000X0.150000X0.725000X-0.150000X0.725000X-0.150000X-0.725000X0*%
%ADD29RoundRect,0.150000X0.150000X-0.587500X0.150000X0.587500X-0.150000X0.587500X-0.150000X-0.587500X0*%
%ADD30C,5.500000*%
%ADD31R,1.410000X1.410000*%
%ADD32C,1.410000*%
G04 APERTURE END LIST*
D10*
X50264190Y-64837428D02*
X50026095Y-65004095D01*
X50264190Y-65123142D02*
X49764190Y-65123142D01*
X49764190Y-64932666D01*
X49788000Y-64885047D01*
X49811809Y-64861238D01*
X49859428Y-64837428D01*
X49930857Y-64837428D01*
X49978476Y-64861238D01*
X50002285Y-64885047D01*
X50026095Y-64932666D01*
X50026095Y-65123142D01*
X50264190Y-64361238D02*
X50264190Y-64646952D01*
X50264190Y-64504095D02*
X49764190Y-64504095D01*
X49835619Y-64551714D01*
X49883238Y-64599333D01*
X49907047Y-64646952D01*
X49764190Y-64051714D02*
X49764190Y-64004095D01*
X49788000Y-63956476D01*
X49811809Y-63932666D01*
X49859428Y-63908857D01*
X49954666Y-63885047D01*
X50073714Y-63885047D01*
X50168952Y-63908857D01*
X50216571Y-63932666D01*
X50240380Y-63956476D01*
X50264190Y-64004095D01*
X50264190Y-64051714D01*
X50240380Y-64099333D01*
X50216571Y-64123142D01*
X50168952Y-64146952D01*
X50073714Y-64170761D01*
X49954666Y-64170761D01*
X49859428Y-64146952D01*
X49811809Y-64123142D01*
X49788000Y-64099333D01*
X49764190Y-64051714D01*
X57717571Y-53137571D02*
X57693761Y-53161380D01*
X57622333Y-53185190D01*
X57574714Y-53185190D01*
X57503285Y-53161380D01*
X57455666Y-53113761D01*
X57431857Y-53066142D01*
X57408047Y-52970904D01*
X57408047Y-52899476D01*
X57431857Y-52804238D01*
X57455666Y-52756619D01*
X57503285Y-52709000D01*
X57574714Y-52685190D01*
X57622333Y-52685190D01*
X57693761Y-52709000D01*
X57717571Y-52732809D01*
X58193761Y-53185190D02*
X57908047Y-53185190D01*
X58050904Y-53185190D02*
X58050904Y-52685190D01*
X58003285Y-52756619D01*
X57955666Y-52804238D01*
X57908047Y-52828047D01*
X58503285Y-52685190D02*
X58550904Y-52685190D01*
X58598523Y-52709000D01*
X58622333Y-52732809D01*
X58646142Y-52780428D01*
X58669952Y-52875666D01*
X58669952Y-52994714D01*
X58646142Y-53089952D01*
X58622333Y-53137571D01*
X58598523Y-53161380D01*
X58550904Y-53185190D01*
X58503285Y-53185190D01*
X58455666Y-53161380D01*
X58431857Y-53137571D01*
X58408047Y-53089952D01*
X58384238Y-52994714D01*
X58384238Y-52875666D01*
X58408047Y-52780428D01*
X58431857Y-52732809D01*
X58455666Y-52709000D01*
X58503285Y-52685190D01*
X67226666Y-49327571D02*
X67202857Y-49351380D01*
X67131428Y-49375190D01*
X67083809Y-49375190D01*
X67012380Y-49351380D01*
X66964761Y-49303761D01*
X66940952Y-49256142D01*
X66917142Y-49160904D01*
X66917142Y-49089476D01*
X66940952Y-48994238D01*
X66964761Y-48946619D01*
X67012380Y-48899000D01*
X67083809Y-48875190D01*
X67131428Y-48875190D01*
X67202857Y-48899000D01*
X67226666Y-48922809D01*
X67393333Y-48875190D02*
X67726666Y-48875190D01*
X67512380Y-49375190D01*
X50264190Y-60392428D02*
X50026095Y-60559095D01*
X50264190Y-60678142D02*
X49764190Y-60678142D01*
X49764190Y-60487666D01*
X49788000Y-60440047D01*
X49811809Y-60416238D01*
X49859428Y-60392428D01*
X49930857Y-60392428D01*
X49978476Y-60416238D01*
X50002285Y-60440047D01*
X50026095Y-60487666D01*
X50026095Y-60678142D01*
X49811809Y-60201952D02*
X49788000Y-60178142D01*
X49764190Y-60130523D01*
X49764190Y-60011476D01*
X49788000Y-59963857D01*
X49811809Y-59940047D01*
X49859428Y-59916238D01*
X49907047Y-59916238D01*
X49978476Y-59940047D01*
X50264190Y-60225761D01*
X50264190Y-59916238D01*
X50264190Y-59440047D02*
X50264190Y-59725761D01*
X50264190Y-59582904D02*
X49764190Y-59582904D01*
X49835619Y-59630523D01*
X49883238Y-59678142D01*
X49907047Y-59725761D01*
X45017571Y-70584190D02*
X44850904Y-70346095D01*
X44731857Y-70584190D02*
X44731857Y-70084190D01*
X44922333Y-70084190D01*
X44969952Y-70108000D01*
X44993761Y-70131809D01*
X45017571Y-70179428D01*
X45017571Y-70250857D01*
X44993761Y-70298476D01*
X44969952Y-70322285D01*
X44922333Y-70346095D01*
X44731857Y-70346095D01*
X45208047Y-70131809D02*
X45231857Y-70108000D01*
X45279476Y-70084190D01*
X45398523Y-70084190D01*
X45446142Y-70108000D01*
X45469952Y-70131809D01*
X45493761Y-70179428D01*
X45493761Y-70227047D01*
X45469952Y-70298476D01*
X45184238Y-70584190D01*
X45493761Y-70584190D01*
X45922333Y-70250857D02*
X45922333Y-70584190D01*
X45803285Y-70060380D02*
X45684238Y-70417523D01*
X45993761Y-70417523D01*
X53272571Y-51534190D02*
X53105904Y-51296095D01*
X52986857Y-51534190D02*
X52986857Y-51034190D01*
X53177333Y-51034190D01*
X53224952Y-51058000D01*
X53248761Y-51081809D01*
X53272571Y-51129428D01*
X53272571Y-51200857D01*
X53248761Y-51248476D01*
X53224952Y-51272285D01*
X53177333Y-51296095D01*
X52986857Y-51296095D01*
X53463047Y-51081809D02*
X53486857Y-51058000D01*
X53534476Y-51034190D01*
X53653523Y-51034190D01*
X53701142Y-51058000D01*
X53724952Y-51081809D01*
X53748761Y-51129428D01*
X53748761Y-51177047D01*
X53724952Y-51248476D01*
X53439238Y-51534190D01*
X53748761Y-51534190D01*
X54058285Y-51034190D02*
X54105904Y-51034190D01*
X54153523Y-51058000D01*
X54177333Y-51081809D01*
X54201142Y-51129428D01*
X54224952Y-51224666D01*
X54224952Y-51343714D01*
X54201142Y-51438952D01*
X54177333Y-51486571D01*
X54153523Y-51510380D01*
X54105904Y-51534190D01*
X54058285Y-51534190D01*
X54010666Y-51510380D01*
X53986857Y-51486571D01*
X53963047Y-51438952D01*
X53939238Y-51343714D01*
X53939238Y-51224666D01*
X53963047Y-51129428D01*
X53986857Y-51081809D01*
X54010666Y-51058000D01*
X54058285Y-51034190D01*
X44247571Y-69282428D02*
X44271380Y-69306238D01*
X44295190Y-69377666D01*
X44295190Y-69425285D01*
X44271380Y-69496714D01*
X44223761Y-69544333D01*
X44176142Y-69568142D01*
X44080904Y-69591952D01*
X44009476Y-69591952D01*
X43914238Y-69568142D01*
X43866619Y-69544333D01*
X43819000Y-69496714D01*
X43795190Y-69425285D01*
X43795190Y-69377666D01*
X43819000Y-69306238D01*
X43842809Y-69282428D01*
X44295190Y-68806238D02*
X44295190Y-69091952D01*
X44295190Y-68949095D02*
X43795190Y-68949095D01*
X43866619Y-68996714D01*
X43914238Y-69044333D01*
X43938047Y-69091952D01*
X43795190Y-68639571D02*
X43795190Y-68330047D01*
X43985666Y-68496714D01*
X43985666Y-68425285D01*
X44009476Y-68377666D01*
X44033285Y-68353857D01*
X44080904Y-68330047D01*
X44199952Y-68330047D01*
X44247571Y-68353857D01*
X44271380Y-68377666D01*
X44295190Y-68425285D01*
X44295190Y-68568142D01*
X44271380Y-68615761D01*
X44247571Y-68639571D01*
X53272571Y-55344190D02*
X53105904Y-55106095D01*
X52986857Y-55344190D02*
X52986857Y-54844190D01*
X53177333Y-54844190D01*
X53224952Y-54868000D01*
X53248761Y-54891809D01*
X53272571Y-54939428D01*
X53272571Y-55010857D01*
X53248761Y-55058476D01*
X53224952Y-55082285D01*
X53177333Y-55106095D01*
X52986857Y-55106095D01*
X53748761Y-55344190D02*
X53463047Y-55344190D01*
X53605904Y-55344190D02*
X53605904Y-54844190D01*
X53558285Y-54915619D01*
X53510666Y-54963238D01*
X53463047Y-54987047D01*
X54034476Y-55058476D02*
X53986857Y-55034666D01*
X53963047Y-55010857D01*
X53939238Y-54963238D01*
X53939238Y-54939428D01*
X53963047Y-54891809D01*
X53986857Y-54868000D01*
X54034476Y-54844190D01*
X54129714Y-54844190D01*
X54177333Y-54868000D01*
X54201142Y-54891809D01*
X54224952Y-54939428D01*
X54224952Y-54963238D01*
X54201142Y-55010857D01*
X54177333Y-55034666D01*
X54129714Y-55058476D01*
X54034476Y-55058476D01*
X53986857Y-55082285D01*
X53963047Y-55106095D01*
X53939238Y-55153714D01*
X53939238Y-55248952D01*
X53963047Y-55296571D01*
X53986857Y-55320380D01*
X54034476Y-55344190D01*
X54129714Y-55344190D01*
X54177333Y-55320380D01*
X54201142Y-55296571D01*
X54224952Y-55248952D01*
X54224952Y-55153714D01*
X54201142Y-55106095D01*
X54177333Y-55082285D01*
X54129714Y-55058476D01*
X48319571Y-98524190D02*
X48152904Y-98286095D01*
X48033857Y-98524190D02*
X48033857Y-98024190D01*
X48224333Y-98024190D01*
X48271952Y-98048000D01*
X48295761Y-98071809D01*
X48319571Y-98119428D01*
X48319571Y-98190857D01*
X48295761Y-98238476D01*
X48271952Y-98262285D01*
X48224333Y-98286095D01*
X48033857Y-98286095D01*
X48510047Y-98071809D02*
X48533857Y-98048000D01*
X48581476Y-98024190D01*
X48700523Y-98024190D01*
X48748142Y-98048000D01*
X48771952Y-98071809D01*
X48795761Y-98119428D01*
X48795761Y-98167047D01*
X48771952Y-98238476D01*
X48486238Y-98524190D01*
X48795761Y-98524190D01*
X48962428Y-98024190D02*
X49295761Y-98024190D01*
X49081476Y-98524190D01*
X51867571Y-64472333D02*
X51891380Y-64496142D01*
X51915190Y-64567571D01*
X51915190Y-64615190D01*
X51891380Y-64686619D01*
X51843761Y-64734238D01*
X51796142Y-64758047D01*
X51700904Y-64781857D01*
X51629476Y-64781857D01*
X51534238Y-64758047D01*
X51486619Y-64734238D01*
X51439000Y-64686619D01*
X51415190Y-64615190D01*
X51415190Y-64567571D01*
X51439000Y-64496142D01*
X51462809Y-64472333D01*
X51581857Y-64043761D02*
X51915190Y-64043761D01*
X51391380Y-64162809D02*
X51748523Y-64281857D01*
X51748523Y-63972333D01*
X70076190Y-96238142D02*
X69576190Y-96238142D01*
X69576190Y-96119095D01*
X69600000Y-96047666D01*
X69647619Y-96000047D01*
X69695238Y-95976238D01*
X69790476Y-95952428D01*
X69861904Y-95952428D01*
X69957142Y-95976238D01*
X70004761Y-96000047D01*
X70052380Y-96047666D01*
X70076190Y-96119095D01*
X70076190Y-96238142D01*
X70076190Y-95476238D02*
X70076190Y-95761952D01*
X70076190Y-95619095D02*
X69576190Y-95619095D01*
X69647619Y-95666714D01*
X69695238Y-95714333D01*
X69719047Y-95761952D01*
X70076190Y-95000047D02*
X70076190Y-95285761D01*
X70076190Y-95142904D02*
X69576190Y-95142904D01*
X69647619Y-95190523D01*
X69695238Y-95238142D01*
X69719047Y-95285761D01*
X59154190Y-117542428D02*
X58916095Y-117709095D01*
X59154190Y-117828142D02*
X58654190Y-117828142D01*
X58654190Y-117637666D01*
X58678000Y-117590047D01*
X58701809Y-117566238D01*
X58749428Y-117542428D01*
X58820857Y-117542428D01*
X58868476Y-117566238D01*
X58892285Y-117590047D01*
X58916095Y-117637666D01*
X58916095Y-117828142D01*
X58701809Y-117351952D02*
X58678000Y-117328142D01*
X58654190Y-117280523D01*
X58654190Y-117161476D01*
X58678000Y-117113857D01*
X58701809Y-117090047D01*
X58749428Y-117066238D01*
X58797047Y-117066238D01*
X58868476Y-117090047D01*
X59154190Y-117375761D01*
X59154190Y-117066238D01*
X58701809Y-116875761D02*
X58678000Y-116851952D01*
X58654190Y-116804333D01*
X58654190Y-116685285D01*
X58678000Y-116637666D01*
X58701809Y-116613857D01*
X58749428Y-116590047D01*
X58797047Y-116590047D01*
X58868476Y-116613857D01*
X59154190Y-116899571D01*
X59154190Y-116590047D01*
X48057571Y-60265428D02*
X48081380Y-60289238D01*
X48105190Y-60360666D01*
X48105190Y-60408285D01*
X48081380Y-60479714D01*
X48033761Y-60527333D01*
X47986142Y-60551142D01*
X47890904Y-60574952D01*
X47819476Y-60574952D01*
X47724238Y-60551142D01*
X47676619Y-60527333D01*
X47629000Y-60479714D01*
X47605190Y-60408285D01*
X47605190Y-60360666D01*
X47629000Y-60289238D01*
X47652809Y-60265428D01*
X48105190Y-59789238D02*
X48105190Y-60074952D01*
X48105190Y-59932095D02*
X47605190Y-59932095D01*
X47676619Y-59979714D01*
X47724238Y-60027333D01*
X47748047Y-60074952D01*
X47605190Y-59622571D02*
X47605190Y-59289238D01*
X48105190Y-59503523D01*
X44874666Y-49629190D02*
X44708000Y-49391095D01*
X44588952Y-49629190D02*
X44588952Y-49129190D01*
X44779428Y-49129190D01*
X44827047Y-49153000D01*
X44850857Y-49176809D01*
X44874666Y-49224428D01*
X44874666Y-49295857D01*
X44850857Y-49343476D01*
X44827047Y-49367285D01*
X44779428Y-49391095D01*
X44588952Y-49391095D01*
X45112761Y-49629190D02*
X45208000Y-49629190D01*
X45255619Y-49605380D01*
X45279428Y-49581571D01*
X45327047Y-49510142D01*
X45350857Y-49414904D01*
X45350857Y-49224428D01*
X45327047Y-49176809D01*
X45303238Y-49153000D01*
X45255619Y-49129190D01*
X45160380Y-49129190D01*
X45112761Y-49153000D01*
X45088952Y-49176809D01*
X45065142Y-49224428D01*
X45065142Y-49343476D01*
X45088952Y-49391095D01*
X45112761Y-49414904D01*
X45160380Y-49438714D01*
X45255619Y-49438714D01*
X45303238Y-49414904D01*
X45327047Y-49391095D01*
X45350857Y-49343476D01*
X48652952Y-45438190D02*
X48652952Y-44938190D01*
X48772000Y-44938190D01*
X48843428Y-44962000D01*
X48891047Y-45009619D01*
X48914857Y-45057238D01*
X48938666Y-45152476D01*
X48938666Y-45223904D01*
X48914857Y-45319142D01*
X48891047Y-45366761D01*
X48843428Y-45414380D01*
X48772000Y-45438190D01*
X48652952Y-45438190D01*
X49414857Y-45438190D02*
X49129142Y-45438190D01*
X49272000Y-45438190D02*
X49272000Y-44938190D01*
X49224380Y-45009619D01*
X49176761Y-45057238D01*
X49129142Y-45081047D01*
X50264190Y-69282428D02*
X50026095Y-69449095D01*
X50264190Y-69568142D02*
X49764190Y-69568142D01*
X49764190Y-69377666D01*
X49788000Y-69330047D01*
X49811809Y-69306238D01*
X49859428Y-69282428D01*
X49930857Y-69282428D01*
X49978476Y-69306238D01*
X50002285Y-69330047D01*
X50026095Y-69377666D01*
X50026095Y-69568142D01*
X50264190Y-68806238D02*
X50264190Y-69091952D01*
X50264190Y-68949095D02*
X49764190Y-68949095D01*
X49835619Y-68996714D01*
X49883238Y-69044333D01*
X49907047Y-69091952D01*
X49764190Y-68639571D02*
X49764190Y-68330047D01*
X49954666Y-68496714D01*
X49954666Y-68425285D01*
X49978476Y-68377666D01*
X50002285Y-68353857D01*
X50049904Y-68330047D01*
X50168952Y-68330047D01*
X50216571Y-68353857D01*
X50240380Y-68377666D01*
X50264190Y-68425285D01*
X50264190Y-68568142D01*
X50240380Y-68615761D01*
X50216571Y-68639571D01*
X67099666Y-53137571D02*
X67075857Y-53161380D01*
X67004428Y-53185190D01*
X66956809Y-53185190D01*
X66885380Y-53161380D01*
X66837761Y-53113761D01*
X66813952Y-53066142D01*
X66790142Y-52970904D01*
X66790142Y-52899476D01*
X66813952Y-52804238D01*
X66837761Y-52756619D01*
X66885380Y-52709000D01*
X66956809Y-52685190D01*
X67004428Y-52685190D01*
X67075857Y-52709000D01*
X67099666Y-52732809D01*
X67266333Y-52685190D02*
X67575857Y-52685190D01*
X67409190Y-52875666D01*
X67480619Y-52875666D01*
X67528238Y-52899476D01*
X67552047Y-52923285D01*
X67575857Y-52970904D01*
X67575857Y-53089952D01*
X67552047Y-53137571D01*
X67528238Y-53161380D01*
X67480619Y-53185190D01*
X67337761Y-53185190D01*
X67290142Y-53161380D01*
X67266333Y-53137571D01*
X57717571Y-55344190D02*
X57550904Y-55106095D01*
X57431857Y-55344190D02*
X57431857Y-54844190D01*
X57622333Y-54844190D01*
X57669952Y-54868000D01*
X57693761Y-54891809D01*
X57717571Y-54939428D01*
X57717571Y-55010857D01*
X57693761Y-55058476D01*
X57669952Y-55082285D01*
X57622333Y-55106095D01*
X57431857Y-55106095D01*
X58193761Y-55344190D02*
X57908047Y-55344190D01*
X58050904Y-55344190D02*
X58050904Y-54844190D01*
X58003285Y-54915619D01*
X57955666Y-54963238D01*
X57908047Y-54987047D01*
X58622333Y-54844190D02*
X58527095Y-54844190D01*
X58479476Y-54868000D01*
X58455666Y-54891809D01*
X58408047Y-54963238D01*
X58384238Y-55058476D01*
X58384238Y-55248952D01*
X58408047Y-55296571D01*
X58431857Y-55320380D01*
X58479476Y-55344190D01*
X58574714Y-55344190D01*
X58622333Y-55320380D01*
X58646142Y-55296571D01*
X58669952Y-55248952D01*
X58669952Y-55129904D01*
X58646142Y-55082285D01*
X58622333Y-55058476D01*
X58574714Y-55034666D01*
X58479476Y-55034666D01*
X58431857Y-55058476D01*
X58408047Y-55082285D01*
X58384238Y-55129904D01*
X66020190Y-113537952D02*
X66424952Y-113537952D01*
X66472571Y-113514142D01*
X66496380Y-113490333D01*
X66520190Y-113442714D01*
X66520190Y-113347476D01*
X66496380Y-113299857D01*
X66472571Y-113276047D01*
X66424952Y-113252238D01*
X66020190Y-113252238D01*
X66020190Y-113061761D02*
X66020190Y-112752238D01*
X66210666Y-112918904D01*
X66210666Y-112847476D01*
X66234476Y-112799857D01*
X66258285Y-112776047D01*
X66305904Y-112752238D01*
X66424952Y-112752238D01*
X66472571Y-112776047D01*
X66496380Y-112799857D01*
X66520190Y-112847476D01*
X66520190Y-112990333D01*
X66496380Y-113037952D01*
X66472571Y-113061761D01*
X66607571Y-100429190D02*
X66440904Y-100191095D01*
X66321857Y-100429190D02*
X66321857Y-99929190D01*
X66512333Y-99929190D01*
X66559952Y-99953000D01*
X66583761Y-99976809D01*
X66607571Y-100024428D01*
X66607571Y-100095857D01*
X66583761Y-100143476D01*
X66559952Y-100167285D01*
X66512333Y-100191095D01*
X66321857Y-100191095D01*
X66774238Y-99929190D02*
X67083761Y-99929190D01*
X66917095Y-100119666D01*
X66988523Y-100119666D01*
X67036142Y-100143476D01*
X67059952Y-100167285D01*
X67083761Y-100214904D01*
X67083761Y-100333952D01*
X67059952Y-100381571D01*
X67036142Y-100405380D01*
X66988523Y-100429190D01*
X66845666Y-100429190D01*
X66798047Y-100405380D01*
X66774238Y-100381571D01*
X67559952Y-100429190D02*
X67274238Y-100429190D01*
X67417095Y-100429190D02*
X67417095Y-99929190D01*
X67369476Y-100000619D01*
X67321857Y-100048238D01*
X67274238Y-100072047D01*
X69441190Y-121019047D02*
X68941190Y-121019047D01*
X68941190Y-120900000D01*
X68965000Y-120828571D01*
X69012619Y-120780952D01*
X69060238Y-120757142D01*
X69155476Y-120733333D01*
X69226904Y-120733333D01*
X69322142Y-120757142D01*
X69369761Y-120780952D01*
X69417380Y-120828571D01*
X69441190Y-120900000D01*
X69441190Y-121019047D01*
X69441190Y-120495238D02*
X69441190Y-120400000D01*
X69417380Y-120352380D01*
X69393571Y-120328571D01*
X69322142Y-120280952D01*
X69226904Y-120257142D01*
X69036428Y-120257142D01*
X68988809Y-120280952D01*
X68965000Y-120304761D01*
X68941190Y-120352380D01*
X68941190Y-120447619D01*
X68965000Y-120495238D01*
X68988809Y-120519047D01*
X69036428Y-120542857D01*
X69155476Y-120542857D01*
X69203095Y-120519047D01*
X69226904Y-120495238D01*
X69250714Y-120447619D01*
X69250714Y-120352380D01*
X69226904Y-120304761D01*
X69203095Y-120280952D01*
X69155476Y-120257142D01*
X44168190Y-60567047D02*
X43668190Y-60567047D01*
X43668190Y-60448000D01*
X43692000Y-60376571D01*
X43739619Y-60328952D01*
X43787238Y-60305142D01*
X43882476Y-60281333D01*
X43953904Y-60281333D01*
X44049142Y-60305142D01*
X44096761Y-60328952D01*
X44144380Y-60376571D01*
X44168190Y-60448000D01*
X44168190Y-60567047D01*
X43882476Y-59995619D02*
X43858666Y-60043238D01*
X43834857Y-60067047D01*
X43787238Y-60090857D01*
X43763428Y-60090857D01*
X43715809Y-60067047D01*
X43692000Y-60043238D01*
X43668190Y-59995619D01*
X43668190Y-59900380D01*
X43692000Y-59852761D01*
X43715809Y-59828952D01*
X43763428Y-59805142D01*
X43787238Y-59805142D01*
X43834857Y-59828952D01*
X43858666Y-59852761D01*
X43882476Y-59900380D01*
X43882476Y-59995619D01*
X43906285Y-60043238D01*
X43930095Y-60067047D01*
X43977714Y-60090857D01*
X44072952Y-60090857D01*
X44120571Y-60067047D01*
X44144380Y-60043238D01*
X44168190Y-59995619D01*
X44168190Y-59900380D01*
X44144380Y-59852761D01*
X44120571Y-59828952D01*
X44072952Y-59805142D01*
X43977714Y-59805142D01*
X43930095Y-59828952D01*
X43906285Y-59852761D01*
X43882476Y-59900380D01*
X66607571Y-98524190D02*
X66440904Y-98286095D01*
X66321857Y-98524190D02*
X66321857Y-98024190D01*
X66512333Y-98024190D01*
X66559952Y-98048000D01*
X66583761Y-98071809D01*
X66607571Y-98119428D01*
X66607571Y-98190857D01*
X66583761Y-98238476D01*
X66559952Y-98262285D01*
X66512333Y-98286095D01*
X66321857Y-98286095D01*
X66774238Y-98024190D02*
X67083761Y-98024190D01*
X66917095Y-98214666D01*
X66988523Y-98214666D01*
X67036142Y-98238476D01*
X67059952Y-98262285D01*
X67083761Y-98309904D01*
X67083761Y-98428952D01*
X67059952Y-98476571D01*
X67036142Y-98500380D01*
X66988523Y-98524190D01*
X66845666Y-98524190D01*
X66798047Y-98500380D01*
X66774238Y-98476571D01*
X67393285Y-98024190D02*
X67440904Y-98024190D01*
X67488523Y-98048000D01*
X67512333Y-98071809D01*
X67536142Y-98119428D01*
X67559952Y-98214666D01*
X67559952Y-98333714D01*
X67536142Y-98428952D01*
X67512333Y-98476571D01*
X67488523Y-98500380D01*
X67440904Y-98524190D01*
X67393285Y-98524190D01*
X67345666Y-98500380D01*
X67321857Y-98476571D01*
X67298047Y-98428952D01*
X67274238Y-98333714D01*
X67274238Y-98214666D01*
X67298047Y-98119428D01*
X67321857Y-98071809D01*
X67345666Y-98048000D01*
X67393285Y-98024190D01*
X51867571Y-60392428D02*
X51891380Y-60416238D01*
X51915190Y-60487666D01*
X51915190Y-60535285D01*
X51891380Y-60606714D01*
X51843761Y-60654333D01*
X51796142Y-60678142D01*
X51700904Y-60701952D01*
X51629476Y-60701952D01*
X51534238Y-60678142D01*
X51486619Y-60654333D01*
X51439000Y-60606714D01*
X51415190Y-60535285D01*
X51415190Y-60487666D01*
X51439000Y-60416238D01*
X51462809Y-60392428D01*
X51915190Y-59916238D02*
X51915190Y-60201952D01*
X51915190Y-60059095D02*
X51415190Y-60059095D01*
X51486619Y-60106714D01*
X51534238Y-60154333D01*
X51558047Y-60201952D01*
X51415190Y-59463857D02*
X51415190Y-59701952D01*
X51653285Y-59725761D01*
X51629476Y-59701952D01*
X51605666Y-59654333D01*
X51605666Y-59535285D01*
X51629476Y-59487666D01*
X51653285Y-59463857D01*
X51700904Y-59440047D01*
X51819952Y-59440047D01*
X51867571Y-59463857D01*
X51891380Y-59487666D01*
X51915190Y-59535285D01*
X51915190Y-59654333D01*
X51891380Y-59701952D01*
X51867571Y-59725761D01*
X48057571Y-69282428D02*
X48081380Y-69306238D01*
X48105190Y-69377666D01*
X48105190Y-69425285D01*
X48081380Y-69496714D01*
X48033761Y-69544333D01*
X47986142Y-69568142D01*
X47890904Y-69591952D01*
X47819476Y-69591952D01*
X47724238Y-69568142D01*
X47676619Y-69544333D01*
X47629000Y-69496714D01*
X47605190Y-69425285D01*
X47605190Y-69377666D01*
X47629000Y-69306238D01*
X47652809Y-69282428D01*
X48105190Y-68806238D02*
X48105190Y-69091952D01*
X48105190Y-68949095D02*
X47605190Y-68949095D01*
X47676619Y-68996714D01*
X47724238Y-69044333D01*
X47748047Y-69091952D01*
X48105190Y-68330047D02*
X48105190Y-68615761D01*
X48105190Y-68472904D02*
X47605190Y-68472904D01*
X47676619Y-68520523D01*
X47724238Y-68568142D01*
X47748047Y-68615761D01*
X62654666Y-49327571D02*
X62630857Y-49351380D01*
X62559428Y-49375190D01*
X62511809Y-49375190D01*
X62440380Y-49351380D01*
X62392761Y-49303761D01*
X62368952Y-49256142D01*
X62345142Y-49160904D01*
X62345142Y-49089476D01*
X62368952Y-48994238D01*
X62392761Y-48946619D01*
X62440380Y-48899000D01*
X62511809Y-48875190D01*
X62559428Y-48875190D01*
X62630857Y-48899000D01*
X62654666Y-48922809D01*
X62892761Y-49375190D02*
X62988000Y-49375190D01*
X63035619Y-49351380D01*
X63059428Y-49327571D01*
X63107047Y-49256142D01*
X63130857Y-49160904D01*
X63130857Y-48970428D01*
X63107047Y-48922809D01*
X63083238Y-48899000D01*
X63035619Y-48875190D01*
X62940380Y-48875190D01*
X62892761Y-48899000D01*
X62868952Y-48922809D01*
X62845142Y-48970428D01*
X62845142Y-49089476D01*
X62868952Y-49137095D01*
X62892761Y-49160904D01*
X62940380Y-49184714D01*
X63035619Y-49184714D01*
X63083238Y-49160904D01*
X63107047Y-49137095D01*
X63130857Y-49089476D01*
X66607571Y-96619190D02*
X66440904Y-96381095D01*
X66321857Y-96619190D02*
X66321857Y-96119190D01*
X66512333Y-96119190D01*
X66559952Y-96143000D01*
X66583761Y-96166809D01*
X66607571Y-96214428D01*
X66607571Y-96285857D01*
X66583761Y-96333476D01*
X66559952Y-96357285D01*
X66512333Y-96381095D01*
X66321857Y-96381095D01*
X66798047Y-96166809D02*
X66821857Y-96143000D01*
X66869476Y-96119190D01*
X66988523Y-96119190D01*
X67036142Y-96143000D01*
X67059952Y-96166809D01*
X67083761Y-96214428D01*
X67083761Y-96262047D01*
X67059952Y-96333476D01*
X66774238Y-96619190D01*
X67083761Y-96619190D01*
X67321857Y-96619190D02*
X67417095Y-96619190D01*
X67464714Y-96595380D01*
X67488523Y-96571571D01*
X67536142Y-96500142D01*
X67559952Y-96404904D01*
X67559952Y-96214428D01*
X67536142Y-96166809D01*
X67512333Y-96143000D01*
X67464714Y-96119190D01*
X67369476Y-96119190D01*
X67321857Y-96143000D01*
X67298047Y-96166809D01*
X67274238Y-96214428D01*
X67274238Y-96333476D01*
X67298047Y-96381095D01*
X67321857Y-96404904D01*
X67369476Y-96428714D01*
X67464714Y-96428714D01*
X67512333Y-96404904D01*
X67536142Y-96381095D01*
X67559952Y-96333476D01*
X57542952Y-45438190D02*
X57542952Y-44938190D01*
X57662000Y-44938190D01*
X57733428Y-44962000D01*
X57781047Y-45009619D01*
X57804857Y-45057238D01*
X57828666Y-45152476D01*
X57828666Y-45223904D01*
X57804857Y-45319142D01*
X57781047Y-45366761D01*
X57733428Y-45414380D01*
X57662000Y-45438190D01*
X57542952Y-45438190D01*
X58257238Y-44938190D02*
X58162000Y-44938190D01*
X58114380Y-44962000D01*
X58090571Y-44985809D01*
X58042952Y-45057238D01*
X58019142Y-45152476D01*
X58019142Y-45342952D01*
X58042952Y-45390571D01*
X58066761Y-45414380D01*
X58114380Y-45438190D01*
X58209619Y-45438190D01*
X58257238Y-45414380D01*
X58281047Y-45390571D01*
X58304857Y-45342952D01*
X58304857Y-45223904D01*
X58281047Y-45176285D01*
X58257238Y-45152476D01*
X58209619Y-45128666D01*
X58114380Y-45128666D01*
X58066761Y-45152476D01*
X58042952Y-45176285D01*
X58019142Y-45223904D01*
X55979190Y-60265428D02*
X55741095Y-60432095D01*
X55979190Y-60551142D02*
X55479190Y-60551142D01*
X55479190Y-60360666D01*
X55503000Y-60313047D01*
X55526809Y-60289238D01*
X55574428Y-60265428D01*
X55645857Y-60265428D01*
X55693476Y-60289238D01*
X55717285Y-60313047D01*
X55741095Y-60360666D01*
X55741095Y-60551142D01*
X55979190Y-59789238D02*
X55979190Y-60074952D01*
X55979190Y-59932095D02*
X55479190Y-59932095D01*
X55550619Y-59979714D01*
X55598238Y-60027333D01*
X55622047Y-60074952D01*
X55479190Y-59622571D02*
X55479190Y-59289238D01*
X55979190Y-59503523D01*
X54074190Y-60392428D02*
X53836095Y-60559095D01*
X54074190Y-60678142D02*
X53574190Y-60678142D01*
X53574190Y-60487666D01*
X53598000Y-60440047D01*
X53621809Y-60416238D01*
X53669428Y-60392428D01*
X53740857Y-60392428D01*
X53788476Y-60416238D01*
X53812285Y-60440047D01*
X53836095Y-60487666D01*
X53836095Y-60678142D01*
X54074190Y-59916238D02*
X54074190Y-60201952D01*
X54074190Y-60059095D02*
X53574190Y-60059095D01*
X53645619Y-60106714D01*
X53693238Y-60154333D01*
X53717047Y-60201952D01*
X54074190Y-59678142D02*
X54074190Y-59582904D01*
X54050380Y-59535285D01*
X54026571Y-59511476D01*
X53955142Y-59463857D01*
X53859904Y-59440047D01*
X53669428Y-59440047D01*
X53621809Y-59463857D01*
X53598000Y-59487666D01*
X53574190Y-59535285D01*
X53574190Y-59630523D01*
X53598000Y-59678142D01*
X53621809Y-59701952D01*
X53669428Y-59725761D01*
X53788476Y-59725761D01*
X53836095Y-59701952D01*
X53859904Y-59678142D01*
X53883714Y-59630523D01*
X53883714Y-59535285D01*
X53859904Y-59487666D01*
X53836095Y-59463857D01*
X53788476Y-59440047D01*
X49319666Y-49327571D02*
X49295857Y-49351380D01*
X49224428Y-49375190D01*
X49176809Y-49375190D01*
X49105380Y-49351380D01*
X49057761Y-49303761D01*
X49033952Y-49256142D01*
X49010142Y-49160904D01*
X49010142Y-49089476D01*
X49033952Y-48994238D01*
X49057761Y-48946619D01*
X49105380Y-48899000D01*
X49176809Y-48875190D01*
X49224428Y-48875190D01*
X49295857Y-48899000D01*
X49319666Y-48922809D01*
X49748238Y-48875190D02*
X49653000Y-48875190D01*
X49605380Y-48899000D01*
X49581571Y-48922809D01*
X49533952Y-48994238D01*
X49510142Y-49089476D01*
X49510142Y-49279952D01*
X49533952Y-49327571D01*
X49557761Y-49351380D01*
X49605380Y-49375190D01*
X49700619Y-49375190D01*
X49748238Y-49351380D01*
X49772047Y-49327571D01*
X49795857Y-49279952D01*
X49795857Y-49160904D01*
X49772047Y-49113285D01*
X49748238Y-49089476D01*
X49700619Y-49065666D01*
X49605380Y-49065666D01*
X49557761Y-49089476D01*
X49533952Y-49113285D01*
X49510142Y-49160904D01*
X44874666Y-53137571D02*
X44850857Y-53161380D01*
X44779428Y-53185190D01*
X44731809Y-53185190D01*
X44660380Y-53161380D01*
X44612761Y-53113761D01*
X44588952Y-53066142D01*
X44565142Y-52970904D01*
X44565142Y-52899476D01*
X44588952Y-52804238D01*
X44612761Y-52756619D01*
X44660380Y-52709000D01*
X44731809Y-52685190D01*
X44779428Y-52685190D01*
X44850857Y-52709000D01*
X44874666Y-52732809D01*
X45350857Y-53185190D02*
X45065142Y-53185190D01*
X45208000Y-53185190D02*
X45208000Y-52685190D01*
X45160380Y-52756619D01*
X45112761Y-52804238D01*
X45065142Y-52828047D01*
X44080952Y-45438190D02*
X44080952Y-44938190D01*
X44200000Y-44938190D01*
X44271428Y-44962000D01*
X44319047Y-45009619D01*
X44342857Y-45057238D01*
X44366666Y-45152476D01*
X44366666Y-45223904D01*
X44342857Y-45319142D01*
X44319047Y-45366761D01*
X44271428Y-45414380D01*
X44200000Y-45438190D01*
X44080952Y-45438190D01*
X44533333Y-44938190D02*
X44842857Y-44938190D01*
X44676190Y-45128666D01*
X44747619Y-45128666D01*
X44795238Y-45152476D01*
X44819047Y-45176285D01*
X44842857Y-45223904D01*
X44842857Y-45342952D01*
X44819047Y-45390571D01*
X44795238Y-45414380D01*
X44747619Y-45438190D01*
X44604761Y-45438190D01*
X44557142Y-45414380D01*
X44533333Y-45390571D01*
X45565190Y-93571142D02*
X45065190Y-93571142D01*
X45065190Y-93452095D01*
X45089000Y-93380666D01*
X45136619Y-93333047D01*
X45184238Y-93309238D01*
X45279476Y-93285428D01*
X45350904Y-93285428D01*
X45446142Y-93309238D01*
X45493761Y-93333047D01*
X45541380Y-93380666D01*
X45565190Y-93452095D01*
X45565190Y-93571142D01*
X45565190Y-92809238D02*
X45565190Y-93094952D01*
X45565190Y-92952095D02*
X45065190Y-92952095D01*
X45136619Y-92999714D01*
X45184238Y-93047333D01*
X45208047Y-93094952D01*
X45065190Y-92499714D02*
X45065190Y-92452095D01*
X45089000Y-92404476D01*
X45112809Y-92380666D01*
X45160428Y-92356857D01*
X45255666Y-92333047D01*
X45374714Y-92333047D01*
X45469952Y-92356857D01*
X45517571Y-92380666D01*
X45541380Y-92404476D01*
X45565190Y-92452095D01*
X45565190Y-92499714D01*
X45541380Y-92547333D01*
X45517571Y-92571142D01*
X45469952Y-92594952D01*
X45374714Y-92618761D01*
X45255666Y-92618761D01*
X45160428Y-92594952D01*
X45112809Y-92571142D01*
X45089000Y-92547333D01*
X45065190Y-92499714D01*
X48192571Y-100429190D02*
X48025904Y-100191095D01*
X47906857Y-100429190D02*
X47906857Y-99929190D01*
X48097333Y-99929190D01*
X48144952Y-99953000D01*
X48168761Y-99976809D01*
X48192571Y-100024428D01*
X48192571Y-100095857D01*
X48168761Y-100143476D01*
X48144952Y-100167285D01*
X48097333Y-100191095D01*
X47906857Y-100191095D01*
X48383047Y-99976809D02*
X48406857Y-99953000D01*
X48454476Y-99929190D01*
X48573523Y-99929190D01*
X48621142Y-99953000D01*
X48644952Y-99976809D01*
X48668761Y-100024428D01*
X48668761Y-100072047D01*
X48644952Y-100143476D01*
X48359238Y-100429190D01*
X48668761Y-100429190D01*
X48954476Y-100143476D02*
X48906857Y-100119666D01*
X48883047Y-100095857D01*
X48859238Y-100048238D01*
X48859238Y-100024428D01*
X48883047Y-99976809D01*
X48906857Y-99953000D01*
X48954476Y-99929190D01*
X49049714Y-99929190D01*
X49097333Y-99953000D01*
X49121142Y-99976809D01*
X49144952Y-100024428D01*
X49144952Y-100048238D01*
X49121142Y-100095857D01*
X49097333Y-100119666D01*
X49049714Y-100143476D01*
X48954476Y-100143476D01*
X48906857Y-100167285D01*
X48883047Y-100191095D01*
X48859238Y-100238714D01*
X48859238Y-100333952D01*
X48883047Y-100381571D01*
X48906857Y-100405380D01*
X48954476Y-100429190D01*
X49049714Y-100429190D01*
X49097333Y-100405380D01*
X49121142Y-100381571D01*
X49144952Y-100333952D01*
X49144952Y-100238714D01*
X49121142Y-100191095D01*
X49097333Y-100167285D01*
X49049714Y-100143476D01*
X46454190Y-69282428D02*
X46216095Y-69449095D01*
X46454190Y-69568142D02*
X45954190Y-69568142D01*
X45954190Y-69377666D01*
X45978000Y-69330047D01*
X46001809Y-69306238D01*
X46049428Y-69282428D01*
X46120857Y-69282428D01*
X46168476Y-69306238D01*
X46192285Y-69330047D01*
X46216095Y-69377666D01*
X46216095Y-69568142D01*
X46454190Y-68806238D02*
X46454190Y-69091952D01*
X46454190Y-68949095D02*
X45954190Y-68949095D01*
X46025619Y-68996714D01*
X46073238Y-69044333D01*
X46097047Y-69091952D01*
X45954190Y-68353857D02*
X45954190Y-68591952D01*
X46192285Y-68615761D01*
X46168476Y-68591952D01*
X46144666Y-68544333D01*
X46144666Y-68425285D01*
X46168476Y-68377666D01*
X46192285Y-68353857D01*
X46239904Y-68330047D01*
X46358952Y-68330047D01*
X46406571Y-68353857D01*
X46430380Y-68377666D01*
X46454190Y-68425285D01*
X46454190Y-68544333D01*
X46430380Y-68591952D01*
X46406571Y-68615761D01*
X62654666Y-55344190D02*
X62488000Y-55106095D01*
X62368952Y-55344190D02*
X62368952Y-54844190D01*
X62559428Y-54844190D01*
X62607047Y-54868000D01*
X62630857Y-54891809D01*
X62654666Y-54939428D01*
X62654666Y-55010857D01*
X62630857Y-55058476D01*
X62607047Y-55082285D01*
X62559428Y-55106095D01*
X62368952Y-55106095D01*
X63083238Y-55010857D02*
X63083238Y-55344190D01*
X62964190Y-54820380D02*
X62845142Y-55177523D01*
X63154666Y-55177523D01*
X49319666Y-51534190D02*
X49153000Y-51296095D01*
X49033952Y-51534190D02*
X49033952Y-51034190D01*
X49224428Y-51034190D01*
X49272047Y-51058000D01*
X49295857Y-51081809D01*
X49319666Y-51129428D01*
X49319666Y-51200857D01*
X49295857Y-51248476D01*
X49272047Y-51272285D01*
X49224428Y-51296095D01*
X49033952Y-51296095D01*
X49605380Y-51248476D02*
X49557761Y-51224666D01*
X49533952Y-51200857D01*
X49510142Y-51153238D01*
X49510142Y-51129428D01*
X49533952Y-51081809D01*
X49557761Y-51058000D01*
X49605380Y-51034190D01*
X49700619Y-51034190D01*
X49748238Y-51058000D01*
X49772047Y-51081809D01*
X49795857Y-51129428D01*
X49795857Y-51153238D01*
X49772047Y-51200857D01*
X49748238Y-51224666D01*
X49700619Y-51248476D01*
X49605380Y-51248476D01*
X49557761Y-51272285D01*
X49533952Y-51296095D01*
X49510142Y-51343714D01*
X49510142Y-51438952D01*
X49533952Y-51486571D01*
X49557761Y-51510380D01*
X49605380Y-51534190D01*
X49700619Y-51534190D01*
X49748238Y-51510380D01*
X49772047Y-51486571D01*
X49795857Y-51438952D01*
X49795857Y-51343714D01*
X49772047Y-51296095D01*
X49748238Y-51272285D01*
X49700619Y-51248476D01*
X47144857Y-84300190D02*
X47144857Y-83800190D01*
X47263904Y-83800190D01*
X47335333Y-83824000D01*
X47382952Y-83871619D01*
X47406761Y-83919238D01*
X47430571Y-84014476D01*
X47430571Y-84085904D01*
X47406761Y-84181142D01*
X47382952Y-84228761D01*
X47335333Y-84276380D01*
X47263904Y-84300190D01*
X47144857Y-84300190D01*
X47906761Y-84300190D02*
X47621047Y-84300190D01*
X47763904Y-84300190D02*
X47763904Y-83800190D01*
X47716285Y-83871619D01*
X47668666Y-83919238D01*
X47621047Y-83943047D01*
X48097238Y-83847809D02*
X48121047Y-83824000D01*
X48168666Y-83800190D01*
X48287714Y-83800190D01*
X48335333Y-83824000D01*
X48359142Y-83847809D01*
X48382952Y-83895428D01*
X48382952Y-83943047D01*
X48359142Y-84014476D01*
X48073428Y-84300190D01*
X48382952Y-84300190D01*
X53224952Y-45438190D02*
X53224952Y-44938190D01*
X53344000Y-44938190D01*
X53415428Y-44962000D01*
X53463047Y-45009619D01*
X53486857Y-45057238D01*
X53510666Y-45152476D01*
X53510666Y-45223904D01*
X53486857Y-45319142D01*
X53463047Y-45366761D01*
X53415428Y-45414380D01*
X53344000Y-45438190D01*
X53224952Y-45438190D01*
X53677333Y-44938190D02*
X54010666Y-44938190D01*
X53796380Y-45438190D01*
X57082571Y-100429190D02*
X56915904Y-100191095D01*
X56796857Y-100429190D02*
X56796857Y-99929190D01*
X56987333Y-99929190D01*
X57034952Y-99953000D01*
X57058761Y-99976809D01*
X57082571Y-100024428D01*
X57082571Y-100095857D01*
X57058761Y-100143476D01*
X57034952Y-100167285D01*
X56987333Y-100191095D01*
X56796857Y-100191095D01*
X57249238Y-99929190D02*
X57558761Y-99929190D01*
X57392095Y-100119666D01*
X57463523Y-100119666D01*
X57511142Y-100143476D01*
X57534952Y-100167285D01*
X57558761Y-100214904D01*
X57558761Y-100333952D01*
X57534952Y-100381571D01*
X57511142Y-100405380D01*
X57463523Y-100429190D01*
X57320666Y-100429190D01*
X57273047Y-100405380D01*
X57249238Y-100381571D01*
X57987333Y-100095857D02*
X57987333Y-100429190D01*
X57868285Y-99905380D02*
X57749238Y-100262523D01*
X58058761Y-100262523D01*
X67099666Y-55344190D02*
X66933000Y-55106095D01*
X66813952Y-55344190D02*
X66813952Y-54844190D01*
X67004428Y-54844190D01*
X67052047Y-54868000D01*
X67075857Y-54891809D01*
X67099666Y-54939428D01*
X67099666Y-55010857D01*
X67075857Y-55058476D01*
X67052047Y-55082285D01*
X67004428Y-55106095D01*
X66813952Y-55106095D01*
X67266333Y-54844190D02*
X67575857Y-54844190D01*
X67409190Y-55034666D01*
X67480619Y-55034666D01*
X67528238Y-55058476D01*
X67552047Y-55082285D01*
X67575857Y-55129904D01*
X67575857Y-55248952D01*
X67552047Y-55296571D01*
X67528238Y-55320380D01*
X67480619Y-55344190D01*
X67337761Y-55344190D01*
X67290142Y-55320380D01*
X67266333Y-55296571D01*
X62162571Y-51534190D02*
X61995904Y-51296095D01*
X61876857Y-51534190D02*
X61876857Y-51034190D01*
X62067333Y-51034190D01*
X62114952Y-51058000D01*
X62138761Y-51081809D01*
X62162571Y-51129428D01*
X62162571Y-51200857D01*
X62138761Y-51248476D01*
X62114952Y-51272285D01*
X62067333Y-51296095D01*
X61876857Y-51296095D01*
X62638761Y-51534190D02*
X62353047Y-51534190D01*
X62495904Y-51534190D02*
X62495904Y-51034190D01*
X62448285Y-51105619D01*
X62400666Y-51153238D01*
X62353047Y-51177047D01*
X63114952Y-51534190D02*
X62829238Y-51534190D01*
X62972095Y-51534190D02*
X62972095Y-51034190D01*
X62924476Y-51105619D01*
X62876857Y-51153238D01*
X62829238Y-51177047D01*
X49319666Y-55344190D02*
X49153000Y-55106095D01*
X49033952Y-55344190D02*
X49033952Y-54844190D01*
X49224428Y-54844190D01*
X49272047Y-54868000D01*
X49295857Y-54891809D01*
X49319666Y-54939428D01*
X49319666Y-55010857D01*
X49295857Y-55058476D01*
X49272047Y-55082285D01*
X49224428Y-55106095D01*
X49033952Y-55106095D01*
X49510142Y-54891809D02*
X49533952Y-54868000D01*
X49581571Y-54844190D01*
X49700619Y-54844190D01*
X49748238Y-54868000D01*
X49772047Y-54891809D01*
X49795857Y-54939428D01*
X49795857Y-54987047D01*
X49772047Y-55058476D01*
X49486333Y-55344190D01*
X49795857Y-55344190D01*
X52169190Y-69282428D02*
X51931095Y-69449095D01*
X52169190Y-69568142D02*
X51669190Y-69568142D01*
X51669190Y-69377666D01*
X51693000Y-69330047D01*
X51716809Y-69306238D01*
X51764428Y-69282428D01*
X51835857Y-69282428D01*
X51883476Y-69306238D01*
X51907285Y-69330047D01*
X51931095Y-69377666D01*
X51931095Y-69568142D01*
X52169190Y-68806238D02*
X52169190Y-69091952D01*
X52169190Y-68949095D02*
X51669190Y-68949095D01*
X51740619Y-68996714D01*
X51788238Y-69044333D01*
X51812047Y-69091952D01*
X51716809Y-68615761D02*
X51693000Y-68591952D01*
X51669190Y-68544333D01*
X51669190Y-68425285D01*
X51693000Y-68377666D01*
X51716809Y-68353857D01*
X51764428Y-68330047D01*
X51812047Y-68330047D01*
X51883476Y-68353857D01*
X52169190Y-68639571D01*
X52169190Y-68330047D01*
X66432952Y-45438190D02*
X66432952Y-44938190D01*
X66552000Y-44938190D01*
X66623428Y-44962000D01*
X66671047Y-45009619D01*
X66694857Y-45057238D01*
X66718666Y-45152476D01*
X66718666Y-45223904D01*
X66694857Y-45319142D01*
X66671047Y-45366761D01*
X66623428Y-45414380D01*
X66552000Y-45438190D01*
X66432952Y-45438190D01*
X66909142Y-44985809D02*
X66932952Y-44962000D01*
X66980571Y-44938190D01*
X67099619Y-44938190D01*
X67147238Y-44962000D01*
X67171047Y-44985809D01*
X67194857Y-45033428D01*
X67194857Y-45081047D01*
X67171047Y-45152476D01*
X66885333Y-45438190D01*
X67194857Y-45438190D01*
X50478571Y-82301190D02*
X50311904Y-82063095D01*
X50192857Y-82301190D02*
X50192857Y-81801190D01*
X50383333Y-81801190D01*
X50430952Y-81825000D01*
X50454761Y-81848809D01*
X50478571Y-81896428D01*
X50478571Y-81967857D01*
X50454761Y-82015476D01*
X50430952Y-82039285D01*
X50383333Y-82063095D01*
X50192857Y-82063095D01*
X50669047Y-81848809D02*
X50692857Y-81825000D01*
X50740476Y-81801190D01*
X50859523Y-81801190D01*
X50907142Y-81825000D01*
X50930952Y-81848809D01*
X50954761Y-81896428D01*
X50954761Y-81944047D01*
X50930952Y-82015476D01*
X50645238Y-82301190D01*
X50954761Y-82301190D01*
X51407142Y-81801190D02*
X51169047Y-81801190D01*
X51145238Y-82039285D01*
X51169047Y-82015476D01*
X51216666Y-81991666D01*
X51335714Y-81991666D01*
X51383333Y-82015476D01*
X51407142Y-82039285D01*
X51430952Y-82086904D01*
X51430952Y-82205952D01*
X51407142Y-82253571D01*
X51383333Y-82277380D01*
X51335714Y-82301190D01*
X51216666Y-82301190D01*
X51169047Y-82277380D01*
X51145238Y-82253571D01*
X49192666Y-53137571D02*
X49168857Y-53161380D01*
X49097428Y-53185190D01*
X49049809Y-53185190D01*
X48978380Y-53161380D01*
X48930761Y-53113761D01*
X48906952Y-53066142D01*
X48883142Y-52970904D01*
X48883142Y-52899476D01*
X48906952Y-52804238D01*
X48930761Y-52756619D01*
X48978380Y-52709000D01*
X49049809Y-52685190D01*
X49097428Y-52685190D01*
X49168857Y-52709000D01*
X49192666Y-52732809D01*
X49383142Y-52732809D02*
X49406952Y-52709000D01*
X49454571Y-52685190D01*
X49573619Y-52685190D01*
X49621238Y-52709000D01*
X49645047Y-52732809D01*
X49668857Y-52780428D01*
X49668857Y-52828047D01*
X49645047Y-52899476D01*
X49359333Y-53185190D01*
X49668857Y-53185190D01*
X44168190Y-65012047D02*
X43668190Y-65012047D01*
X43668190Y-64893000D01*
X43692000Y-64821571D01*
X43739619Y-64773952D01*
X43787238Y-64750142D01*
X43882476Y-64726333D01*
X43953904Y-64726333D01*
X44049142Y-64750142D01*
X44096761Y-64773952D01*
X44144380Y-64821571D01*
X44168190Y-64893000D01*
X44168190Y-65012047D01*
X43834857Y-64297761D02*
X44168190Y-64297761D01*
X43644380Y-64416809D02*
X44001523Y-64535857D01*
X44001523Y-64226333D01*
X53473809Y-77517619D02*
X53450000Y-77565238D01*
X53402380Y-77612857D01*
X53330952Y-77684285D01*
X53307142Y-77731904D01*
X53307142Y-77779523D01*
X53426190Y-77755714D02*
X53402380Y-77803333D01*
X53354761Y-77850952D01*
X53259523Y-77874761D01*
X53092857Y-77874761D01*
X52997619Y-77850952D01*
X52950000Y-77803333D01*
X52926190Y-77755714D01*
X52926190Y-77660476D01*
X52950000Y-77612857D01*
X52997619Y-77565238D01*
X53092857Y-77541428D01*
X53259523Y-77541428D01*
X53354761Y-77565238D01*
X53402380Y-77612857D01*
X53426190Y-77660476D01*
X53426190Y-77755714D01*
X52926190Y-77374761D02*
X52926190Y-77065238D01*
X53116666Y-77231904D01*
X53116666Y-77160476D01*
X53140476Y-77112857D01*
X53164285Y-77089047D01*
X53211904Y-77065238D01*
X53330952Y-77065238D01*
X53378571Y-77089047D01*
X53402380Y-77112857D01*
X53426190Y-77160476D01*
X53426190Y-77303333D01*
X53402380Y-77350952D01*
X53378571Y-77374761D01*
X57082571Y-96619190D02*
X56915904Y-96381095D01*
X56796857Y-96619190D02*
X56796857Y-96119190D01*
X56987333Y-96119190D01*
X57034952Y-96143000D01*
X57058761Y-96166809D01*
X57082571Y-96214428D01*
X57082571Y-96285857D01*
X57058761Y-96333476D01*
X57034952Y-96357285D01*
X56987333Y-96381095D01*
X56796857Y-96381095D01*
X57249238Y-96119190D02*
X57558761Y-96119190D01*
X57392095Y-96309666D01*
X57463523Y-96309666D01*
X57511142Y-96333476D01*
X57534952Y-96357285D01*
X57558761Y-96404904D01*
X57558761Y-96523952D01*
X57534952Y-96571571D01*
X57511142Y-96595380D01*
X57463523Y-96619190D01*
X57320666Y-96619190D01*
X57273047Y-96595380D01*
X57249238Y-96571571D01*
X57749238Y-96166809D02*
X57773047Y-96143000D01*
X57820666Y-96119190D01*
X57939714Y-96119190D01*
X57987333Y-96143000D01*
X58011142Y-96166809D01*
X58034952Y-96214428D01*
X58034952Y-96262047D01*
X58011142Y-96333476D01*
X57725428Y-96619190D01*
X58034952Y-96619190D01*
X57082571Y-98524190D02*
X56915904Y-98286095D01*
X56796857Y-98524190D02*
X56796857Y-98024190D01*
X56987333Y-98024190D01*
X57034952Y-98048000D01*
X57058761Y-98071809D01*
X57082571Y-98119428D01*
X57082571Y-98190857D01*
X57058761Y-98238476D01*
X57034952Y-98262285D01*
X56987333Y-98286095D01*
X56796857Y-98286095D01*
X57249238Y-98024190D02*
X57558761Y-98024190D01*
X57392095Y-98214666D01*
X57463523Y-98214666D01*
X57511142Y-98238476D01*
X57534952Y-98262285D01*
X57558761Y-98309904D01*
X57558761Y-98428952D01*
X57534952Y-98476571D01*
X57511142Y-98500380D01*
X57463523Y-98524190D01*
X57320666Y-98524190D01*
X57273047Y-98500380D01*
X57249238Y-98476571D01*
X57725428Y-98024190D02*
X58034952Y-98024190D01*
X57868285Y-98214666D01*
X57939714Y-98214666D01*
X57987333Y-98238476D01*
X58011142Y-98262285D01*
X58034952Y-98309904D01*
X58034952Y-98428952D01*
X58011142Y-98476571D01*
X57987333Y-98500380D01*
X57939714Y-98524190D01*
X57796857Y-98524190D01*
X57749238Y-98500380D01*
X57725428Y-98476571D01*
X41354380Y-75330809D02*
X41306761Y-75307000D01*
X41259142Y-75259380D01*
X41187714Y-75187952D01*
X41140095Y-75164142D01*
X41092476Y-75164142D01*
X41116285Y-75283190D02*
X41068666Y-75259380D01*
X41021047Y-75211761D01*
X40997238Y-75116523D01*
X40997238Y-74949857D01*
X41021047Y-74854619D01*
X41068666Y-74807000D01*
X41116285Y-74783190D01*
X41211523Y-74783190D01*
X41259142Y-74807000D01*
X41306761Y-74854619D01*
X41330571Y-74949857D01*
X41330571Y-75116523D01*
X41306761Y-75211761D01*
X41259142Y-75259380D01*
X41211523Y-75283190D01*
X41116285Y-75283190D01*
X41759142Y-74949857D02*
X41759142Y-75283190D01*
X41640095Y-74759380D02*
X41521047Y-75116523D01*
X41830571Y-75116523D01*
X56495190Y-113537952D02*
X56899952Y-113537952D01*
X56947571Y-113514142D01*
X56971380Y-113490333D01*
X56995190Y-113442714D01*
X56995190Y-113347476D01*
X56971380Y-113299857D01*
X56947571Y-113276047D01*
X56899952Y-113252238D01*
X56495190Y-113252238D01*
X56661857Y-112799857D02*
X56995190Y-112799857D01*
X56471380Y-112918904D02*
X56828523Y-113037952D01*
X56828523Y-112728428D01*
X61987952Y-45438190D02*
X61987952Y-44938190D01*
X62107000Y-44938190D01*
X62178428Y-44962000D01*
X62226047Y-45009619D01*
X62249857Y-45057238D01*
X62273666Y-45152476D01*
X62273666Y-45223904D01*
X62249857Y-45319142D01*
X62226047Y-45366761D01*
X62178428Y-45414380D01*
X62107000Y-45438190D01*
X61987952Y-45438190D01*
X62726047Y-44938190D02*
X62487952Y-44938190D01*
X62464142Y-45176285D01*
X62487952Y-45152476D01*
X62535571Y-45128666D01*
X62654619Y-45128666D01*
X62702238Y-45152476D01*
X62726047Y-45176285D01*
X62749857Y-45223904D01*
X62749857Y-45342952D01*
X62726047Y-45390571D01*
X62702238Y-45414380D01*
X62654619Y-45438190D01*
X62535571Y-45438190D01*
X62487952Y-45414380D01*
X62464142Y-45390571D01*
X44874666Y-51534190D02*
X44708000Y-51296095D01*
X44588952Y-51534190D02*
X44588952Y-51034190D01*
X44779428Y-51034190D01*
X44827047Y-51058000D01*
X44850857Y-51081809D01*
X44874666Y-51129428D01*
X44874666Y-51200857D01*
X44850857Y-51248476D01*
X44827047Y-51272285D01*
X44779428Y-51296095D01*
X44588952Y-51296095D01*
X45303238Y-51034190D02*
X45208000Y-51034190D01*
X45160380Y-51058000D01*
X45136571Y-51081809D01*
X45088952Y-51153238D01*
X45065142Y-51248476D01*
X45065142Y-51438952D01*
X45088952Y-51486571D01*
X45112761Y-51510380D01*
X45160380Y-51534190D01*
X45255619Y-51534190D01*
X45303238Y-51510380D01*
X45327047Y-51486571D01*
X45350857Y-51438952D01*
X45350857Y-51319904D01*
X45327047Y-51272285D01*
X45303238Y-51248476D01*
X45255619Y-51224666D01*
X45160380Y-51224666D01*
X45112761Y-51248476D01*
X45088952Y-51272285D01*
X45065142Y-51319904D01*
X54288571Y-49200571D02*
X54264761Y-49224380D01*
X54193333Y-49248190D01*
X54145714Y-49248190D01*
X54074285Y-49224380D01*
X54026666Y-49176761D01*
X54002857Y-49129142D01*
X53979047Y-49033904D01*
X53979047Y-48962476D01*
X54002857Y-48867238D01*
X54026666Y-48819619D01*
X54074285Y-48772000D01*
X54145714Y-48748190D01*
X54193333Y-48748190D01*
X54264761Y-48772000D01*
X54288571Y-48795809D01*
X54764761Y-49248190D02*
X54479047Y-49248190D01*
X54621904Y-49248190D02*
X54621904Y-48748190D01*
X54574285Y-48819619D01*
X54526666Y-48867238D01*
X54479047Y-48891047D01*
X55193333Y-48748190D02*
X55098095Y-48748190D01*
X55050476Y-48772000D01*
X55026666Y-48795809D01*
X54979047Y-48867238D01*
X54955238Y-48962476D01*
X54955238Y-49152952D01*
X54979047Y-49200571D01*
X55002857Y-49224380D01*
X55050476Y-49248190D01*
X55145714Y-49248190D01*
X55193333Y-49224380D01*
X55217142Y-49200571D01*
X55240952Y-49152952D01*
X55240952Y-49033904D01*
X55217142Y-48986285D01*
X55193333Y-48962476D01*
X55145714Y-48938666D01*
X55050476Y-48938666D01*
X55002857Y-48962476D01*
X54979047Y-48986285D01*
X54955238Y-49033904D01*
X57717571Y-49327571D02*
X57693761Y-49351380D01*
X57622333Y-49375190D01*
X57574714Y-49375190D01*
X57503285Y-49351380D01*
X57455666Y-49303761D01*
X57431857Y-49256142D01*
X57408047Y-49160904D01*
X57408047Y-49089476D01*
X57431857Y-48994238D01*
X57455666Y-48946619D01*
X57503285Y-48899000D01*
X57574714Y-48875190D01*
X57622333Y-48875190D01*
X57693761Y-48899000D01*
X57717571Y-48922809D01*
X58193761Y-49375190D02*
X57908047Y-49375190D01*
X58050904Y-49375190D02*
X58050904Y-48875190D01*
X58003285Y-48946619D01*
X57955666Y-48994238D01*
X57908047Y-49018047D01*
X58384238Y-48922809D02*
X58408047Y-48899000D01*
X58455666Y-48875190D01*
X58574714Y-48875190D01*
X58622333Y-48899000D01*
X58646142Y-48922809D01*
X58669952Y-48970428D01*
X58669952Y-49018047D01*
X58646142Y-49089476D01*
X58360428Y-49375190D01*
X58669952Y-49375190D01*
X57717571Y-51534190D02*
X57550904Y-51296095D01*
X57431857Y-51534190D02*
X57431857Y-51034190D01*
X57622333Y-51034190D01*
X57669952Y-51058000D01*
X57693761Y-51081809D01*
X57717571Y-51129428D01*
X57717571Y-51200857D01*
X57693761Y-51248476D01*
X57669952Y-51272285D01*
X57622333Y-51296095D01*
X57431857Y-51296095D01*
X58193761Y-51534190D02*
X57908047Y-51534190D01*
X58050904Y-51534190D02*
X58050904Y-51034190D01*
X58003285Y-51105619D01*
X57955666Y-51153238D01*
X57908047Y-51177047D01*
X58622333Y-51200857D02*
X58622333Y-51534190D01*
X58503285Y-51010380D02*
X58384238Y-51367523D01*
X58693761Y-51367523D01*
X61694190Y-117542428D02*
X61456095Y-117709095D01*
X61694190Y-117828142D02*
X61194190Y-117828142D01*
X61194190Y-117637666D01*
X61218000Y-117590047D01*
X61241809Y-117566238D01*
X61289428Y-117542428D01*
X61360857Y-117542428D01*
X61408476Y-117566238D01*
X61432285Y-117590047D01*
X61456095Y-117637666D01*
X61456095Y-117828142D01*
X61241809Y-117351952D02*
X61218000Y-117328142D01*
X61194190Y-117280523D01*
X61194190Y-117161476D01*
X61218000Y-117113857D01*
X61241809Y-117090047D01*
X61289428Y-117066238D01*
X61337047Y-117066238D01*
X61408476Y-117090047D01*
X61694190Y-117375761D01*
X61694190Y-117066238D01*
X61194190Y-116899571D02*
X61194190Y-116590047D01*
X61384666Y-116756714D01*
X61384666Y-116685285D01*
X61408476Y-116637666D01*
X61432285Y-116613857D01*
X61479904Y-116590047D01*
X61598952Y-116590047D01*
X61646571Y-116613857D01*
X61670380Y-116637666D01*
X61694190Y-116685285D01*
X61694190Y-116828142D01*
X61670380Y-116875761D01*
X61646571Y-116899571D01*
X67099666Y-51534190D02*
X66933000Y-51296095D01*
X66813952Y-51534190D02*
X66813952Y-51034190D01*
X67004428Y-51034190D01*
X67052047Y-51058000D01*
X67075857Y-51081809D01*
X67099666Y-51129428D01*
X67099666Y-51200857D01*
X67075857Y-51248476D01*
X67052047Y-51272285D01*
X67004428Y-51296095D01*
X66813952Y-51296095D01*
X67552047Y-51034190D02*
X67313952Y-51034190D01*
X67290142Y-51272285D01*
X67313952Y-51248476D01*
X67361571Y-51224666D01*
X67480619Y-51224666D01*
X67528238Y-51248476D01*
X67552047Y-51272285D01*
X67575857Y-51319904D01*
X67575857Y-51438952D01*
X67552047Y-51486571D01*
X67528238Y-51510380D01*
X67480619Y-51534190D01*
X67361571Y-51534190D01*
X67313952Y-51510380D01*
X67290142Y-51486571D01*
X63519809Y-122221619D02*
X63496000Y-122269238D01*
X63448380Y-122316857D01*
X63376952Y-122388285D01*
X63353142Y-122435904D01*
X63353142Y-122483523D01*
X63472190Y-122459714D02*
X63448380Y-122507333D01*
X63400761Y-122554952D01*
X63305523Y-122578761D01*
X63138857Y-122578761D01*
X63043619Y-122554952D01*
X62996000Y-122507333D01*
X62972190Y-122459714D01*
X62972190Y-122364476D01*
X62996000Y-122316857D01*
X63043619Y-122269238D01*
X63138857Y-122245428D01*
X63305523Y-122245428D01*
X63400761Y-122269238D01*
X63448380Y-122316857D01*
X63472190Y-122364476D01*
X63472190Y-122459714D01*
X63019809Y-122054952D02*
X62996000Y-122031142D01*
X62972190Y-121983523D01*
X62972190Y-121864476D01*
X62996000Y-121816857D01*
X63019809Y-121793047D01*
X63067428Y-121769238D01*
X63115047Y-121769238D01*
X63186476Y-121793047D01*
X63472190Y-122078761D01*
X63472190Y-121769238D01*
X62654666Y-57249190D02*
X62488000Y-57011095D01*
X62368952Y-57249190D02*
X62368952Y-56749190D01*
X62559428Y-56749190D01*
X62607047Y-56773000D01*
X62630857Y-56796809D01*
X62654666Y-56844428D01*
X62654666Y-56915857D01*
X62630857Y-56963476D01*
X62607047Y-56987285D01*
X62559428Y-57011095D01*
X62368952Y-57011095D01*
X63130857Y-57249190D02*
X62845142Y-57249190D01*
X62988000Y-57249190D02*
X62988000Y-56749190D01*
X62940380Y-56820619D01*
X62892761Y-56868238D01*
X62845142Y-56892047D01*
X47478190Y-113537952D02*
X47882952Y-113537952D01*
X47930571Y-113514142D01*
X47954380Y-113490333D01*
X47978190Y-113442714D01*
X47978190Y-113347476D01*
X47954380Y-113299857D01*
X47930571Y-113276047D01*
X47882952Y-113252238D01*
X47478190Y-113252238D01*
X47525809Y-113037952D02*
X47502000Y-113014142D01*
X47478190Y-112966523D01*
X47478190Y-112847476D01*
X47502000Y-112799857D01*
X47525809Y-112776047D01*
X47573428Y-112752238D01*
X47621047Y-112752238D01*
X47692476Y-112776047D01*
X47978190Y-113061761D01*
X47978190Y-112752238D01*
X59455809Y-122348619D02*
X59432000Y-122396238D01*
X59384380Y-122443857D01*
X59312952Y-122515285D01*
X59289142Y-122562904D01*
X59289142Y-122610523D01*
X59408190Y-122586714D02*
X59384380Y-122634333D01*
X59336761Y-122681952D01*
X59241523Y-122705761D01*
X59074857Y-122705761D01*
X58979619Y-122681952D01*
X58932000Y-122634333D01*
X58908190Y-122586714D01*
X58908190Y-122491476D01*
X58932000Y-122443857D01*
X58979619Y-122396238D01*
X59074857Y-122372428D01*
X59241523Y-122372428D01*
X59336761Y-122396238D01*
X59384380Y-122443857D01*
X59408190Y-122491476D01*
X59408190Y-122586714D01*
X59408190Y-121896238D02*
X59408190Y-122181952D01*
X59408190Y-122039095D02*
X58908190Y-122039095D01*
X58979619Y-122086714D01*
X59027238Y-122134333D01*
X59051047Y-122181952D01*
X54074190Y-64218333D02*
X53836095Y-64385000D01*
X54074190Y-64504047D02*
X53574190Y-64504047D01*
X53574190Y-64313571D01*
X53598000Y-64265952D01*
X53621809Y-64242142D01*
X53669428Y-64218333D01*
X53740857Y-64218333D01*
X53788476Y-64242142D01*
X53812285Y-64265952D01*
X53836095Y-64313571D01*
X53836095Y-64504047D01*
X53574190Y-64051666D02*
X53574190Y-63718333D01*
X54074190Y-63932619D01*
X48057571Y-64345333D02*
X48081380Y-64369142D01*
X48105190Y-64440571D01*
X48105190Y-64488190D01*
X48081380Y-64559619D01*
X48033761Y-64607238D01*
X47986142Y-64631047D01*
X47890904Y-64654857D01*
X47819476Y-64654857D01*
X47724238Y-64631047D01*
X47676619Y-64607238D01*
X47629000Y-64559619D01*
X47605190Y-64488190D01*
X47605190Y-64440571D01*
X47629000Y-64369142D01*
X47652809Y-64345333D01*
X47819476Y-64059619D02*
X47795666Y-64107238D01*
X47771857Y-64131047D01*
X47724238Y-64154857D01*
X47700428Y-64154857D01*
X47652809Y-64131047D01*
X47629000Y-64107238D01*
X47605190Y-64059619D01*
X47605190Y-63964380D01*
X47629000Y-63916761D01*
X47652809Y-63892952D01*
X47700428Y-63869142D01*
X47724238Y-63869142D01*
X47771857Y-63892952D01*
X47795666Y-63916761D01*
X47819476Y-63964380D01*
X47819476Y-64059619D01*
X47843285Y-64107238D01*
X47867095Y-64131047D01*
X47914714Y-64154857D01*
X48009952Y-64154857D01*
X48057571Y-64131047D01*
X48081380Y-64107238D01*
X48105190Y-64059619D01*
X48105190Y-63964380D01*
X48081380Y-63916761D01*
X48057571Y-63892952D01*
X48009952Y-63869142D01*
X47914714Y-63869142D01*
X47867095Y-63892952D01*
X47843285Y-63916761D01*
X47819476Y-63964380D01*
X53018571Y-53137571D02*
X52994761Y-53161380D01*
X52923333Y-53185190D01*
X52875714Y-53185190D01*
X52804285Y-53161380D01*
X52756666Y-53113761D01*
X52732857Y-53066142D01*
X52709047Y-52970904D01*
X52709047Y-52899476D01*
X52732857Y-52804238D01*
X52756666Y-52756619D01*
X52804285Y-52709000D01*
X52875714Y-52685190D01*
X52923333Y-52685190D01*
X52994761Y-52709000D01*
X53018571Y-52732809D01*
X53494761Y-53185190D02*
X53209047Y-53185190D01*
X53351904Y-53185190D02*
X53351904Y-52685190D01*
X53304285Y-52756619D01*
X53256666Y-52804238D01*
X53209047Y-52828047D01*
X53923333Y-52851857D02*
X53923333Y-53185190D01*
X53804285Y-52661380D02*
X53685238Y-53018523D01*
X53994761Y-53018523D01*
X62527666Y-53137571D02*
X62503857Y-53161380D01*
X62432428Y-53185190D01*
X62384809Y-53185190D01*
X62313380Y-53161380D01*
X62265761Y-53113761D01*
X62241952Y-53066142D01*
X62218142Y-52970904D01*
X62218142Y-52899476D01*
X62241952Y-52804238D01*
X62265761Y-52756619D01*
X62313380Y-52709000D01*
X62384809Y-52685190D01*
X62432428Y-52685190D01*
X62503857Y-52709000D01*
X62527666Y-52732809D01*
X62980047Y-52685190D02*
X62741952Y-52685190D01*
X62718142Y-52923285D01*
X62741952Y-52899476D01*
X62789571Y-52875666D01*
X62908619Y-52875666D01*
X62956238Y-52899476D01*
X62980047Y-52923285D01*
X63003857Y-52970904D01*
X63003857Y-53089952D01*
X62980047Y-53137571D01*
X62956238Y-53161380D01*
X62908619Y-53185190D01*
X62789571Y-53185190D01*
X62741952Y-53161380D01*
X62718142Y-53137571D01*
X48192571Y-96619190D02*
X48025904Y-96381095D01*
X47906857Y-96619190D02*
X47906857Y-96119190D01*
X48097333Y-96119190D01*
X48144952Y-96143000D01*
X48168761Y-96166809D01*
X48192571Y-96214428D01*
X48192571Y-96285857D01*
X48168761Y-96333476D01*
X48144952Y-96357285D01*
X48097333Y-96381095D01*
X47906857Y-96381095D01*
X48383047Y-96166809D02*
X48406857Y-96143000D01*
X48454476Y-96119190D01*
X48573523Y-96119190D01*
X48621142Y-96143000D01*
X48644952Y-96166809D01*
X48668761Y-96214428D01*
X48668761Y-96262047D01*
X48644952Y-96333476D01*
X48359238Y-96619190D01*
X48668761Y-96619190D01*
X49097333Y-96119190D02*
X49002095Y-96119190D01*
X48954476Y-96143000D01*
X48930666Y-96166809D01*
X48883047Y-96238238D01*
X48859238Y-96333476D01*
X48859238Y-96523952D01*
X48883047Y-96571571D01*
X48906857Y-96595380D01*
X48954476Y-96619190D01*
X49049714Y-96619190D01*
X49097333Y-96595380D01*
X49121142Y-96571571D01*
X49144952Y-96523952D01*
X49144952Y-96404904D01*
X49121142Y-96357285D01*
X49097333Y-96333476D01*
X49049714Y-96309666D01*
X48954476Y-96309666D01*
X48906857Y-96333476D01*
X48883047Y-96357285D01*
X48859238Y-96404904D01*
D11*
X51322499Y-63245276D02*
X51322499Y-63754724D01*
X50277499Y-63245276D02*
X50277499Y-63754724D01*
X59316252Y-54710000D02*
X58793748Y-54710000D01*
X59316252Y-53240000D02*
X58793748Y-53240000D01*
X67683748Y-49430000D02*
X68206252Y-49430000D01*
X67683748Y-50900000D02*
X68206252Y-50900000D01*
X51322499Y-58800276D02*
X51322499Y-59309724D01*
X50277499Y-58800276D02*
X50277499Y-59309724D01*
X46100276Y-71642500D02*
X46609724Y-71642500D01*
X46100276Y-70597500D02*
X46609724Y-70597500D01*
X54864724Y-52592499D02*
X54355276Y-52592499D01*
X54864724Y-51547499D02*
X54355276Y-51547499D01*
X44350000Y-68206252D02*
X44350000Y-67683748D01*
X45820000Y-68206252D02*
X45820000Y-67683748D01*
X54864724Y-55357500D02*
X54355276Y-55357500D01*
X54864724Y-56402500D02*
X54355276Y-56402500D01*
X49784724Y-99582500D02*
X49275276Y-99582500D01*
X49784724Y-98537500D02*
X49275276Y-98537500D01*
X51970000Y-63761252D02*
X51970000Y-63238748D01*
X53440000Y-63761252D02*
X53440000Y-63238748D01*
X70105000Y-101825000D02*
X73405000Y-101825000D01*
X70105000Y-101825000D02*
X70105000Y-96425000D01*
X73405000Y-101825000D02*
X73405000Y-96425000D01*
X60212500Y-115950276D02*
X60212500Y-116459724D01*
X59167500Y-115950276D02*
X59167500Y-116459724D01*
X49630000Y-59316252D02*
X49630000Y-58793748D01*
X48160000Y-59316252D02*
X48160000Y-58793748D01*
X45465276Y-49642500D02*
X45974724Y-49642500D01*
X45465276Y-50687500D02*
X45974724Y-50687500D01*
X50165000Y-48550000D02*
X51840000Y-48550000D01*
X50165000Y-45430000D02*
X50815000Y-45430000D01*
X50165000Y-45430000D02*
X49515000Y-45430000D01*
X50165000Y-48550000D02*
X49515000Y-48550000D01*
X51322500Y-67690276D02*
X51322500Y-68199724D01*
X50277500Y-67690276D02*
X50277500Y-68199724D01*
X67683748Y-53240000D02*
X68206252Y-53240000D01*
X67683748Y-54710000D02*
X68206252Y-54710000D01*
X59309724Y-55357500D02*
X58800276Y-55357500D01*
X59309724Y-56402500D02*
X58800276Y-56402500D01*
X66450000Y-106000000D02*
X66450000Y-112500000D01*
X73250000Y-112500000D02*
X73250000Y-106000000D01*
X66450000Y-112500000D02*
X67050000Y-112500000D01*
X73250000Y-106000000D02*
X66450000Y-106000000D01*
X72750000Y-112500000D02*
X73250000Y-112500000D01*
X67690276Y-101487500D02*
X68199724Y-101487500D01*
X67690276Y-100442500D02*
X68199724Y-100442500D01*
X72770000Y-114710000D02*
X69470000Y-114710000D01*
X72770000Y-114710000D02*
X72770000Y-120110000D01*
X69470000Y-114710000D02*
X69470000Y-120110000D01*
X44160000Y-59055000D02*
X44160000Y-58405000D01*
X47280000Y-59055000D02*
X47280000Y-59705000D01*
X44160000Y-59055000D02*
X44160000Y-59705000D01*
X47280000Y-59055000D02*
X47280000Y-57380000D01*
X68199724Y-98537500D02*
X67690276Y-98537500D01*
X68199724Y-99582500D02*
X67690276Y-99582500D01*
X51970000Y-59316252D02*
X51970000Y-58793748D01*
X53440000Y-59316252D02*
X53440000Y-58793748D01*
X49630000Y-68206252D02*
X49630000Y-67683748D01*
X48160000Y-68206252D02*
X48160000Y-67683748D01*
X63238748Y-50900000D02*
X63761252Y-50900000D01*
X63238748Y-49430000D02*
X63761252Y-49430000D01*
X67690276Y-96632500D02*
X68199724Y-96632500D01*
X67690276Y-97677500D02*
X68199724Y-97677500D01*
X59055000Y-45430000D02*
X58405000Y-45430000D01*
X59055000Y-48550000D02*
X60730000Y-48550000D01*
X59055000Y-48550000D02*
X58405000Y-48550000D01*
X59055000Y-45430000D02*
X59705000Y-45430000D01*
X57037500Y-58800276D02*
X57037500Y-59309724D01*
X55992500Y-58800276D02*
X55992500Y-59309724D01*
X55132500Y-58800276D02*
X55132500Y-59309724D01*
X54087500Y-58800276D02*
X54087500Y-59309724D01*
X49903748Y-49430000D02*
X50426252Y-49430000D01*
X49903748Y-50900000D02*
X50426252Y-50900000D01*
X45458748Y-54710000D02*
X45981252Y-54710000D01*
X45458748Y-53240000D02*
X45981252Y-53240000D01*
X45720000Y-45430000D02*
X45070000Y-45430000D01*
X45720000Y-45430000D02*
X46370000Y-45430000D01*
X45720000Y-48550000D02*
X47395000Y-48550000D01*
X45720000Y-48550000D02*
X45070000Y-48550000D01*
X41530000Y-93570000D02*
X41530000Y-88170000D01*
X41530000Y-93570000D02*
X44830000Y-93570000D01*
X44830000Y-93570000D02*
X44830000Y-88170000D01*
X49275276Y-101487500D02*
X49784724Y-101487500D01*
X49275276Y-100442500D02*
X49784724Y-100442500D01*
X46467499Y-67690276D02*
X46467499Y-68199724D01*
X47512499Y-67690276D02*
X47512499Y-68199724D01*
X63754724Y-56402500D02*
X63245276Y-56402500D01*
X63754724Y-55357500D02*
X63245276Y-55357500D01*
X50419724Y-52592500D02*
X49910276Y-52592500D01*
X50419724Y-51547500D02*
X49910276Y-51547500D01*
X41050000Y-84200000D02*
X46450000Y-84200000D01*
X41050000Y-80900000D02*
X46450000Y-80900000D01*
X41050000Y-80900000D02*
X41050000Y-84200000D01*
X54610000Y-48550000D02*
X53960000Y-48550000D01*
X54610000Y-45430000D02*
X55260000Y-45430000D01*
X54610000Y-48550000D02*
X56285000Y-48550000D01*
X54610000Y-45430000D02*
X53960000Y-45430000D01*
X58165276Y-100442500D02*
X58674724Y-100442500D01*
X58165276Y-101487500D02*
X58674724Y-101487500D01*
X68199724Y-56402500D02*
X67690276Y-56402500D01*
X68199724Y-55357500D02*
X67690276Y-55357500D01*
X63754724Y-52592500D02*
X63245276Y-52592500D01*
X63754724Y-51547500D02*
X63245276Y-51547500D01*
X49910276Y-56402500D02*
X50419724Y-56402500D01*
X49910276Y-55357500D02*
X50419724Y-55357500D01*
X53227500Y-68199724D02*
X53227500Y-67690276D01*
X52182500Y-68199724D02*
X52182500Y-67690276D01*
X67945000Y-48550000D02*
X69620000Y-48550000D01*
X67945000Y-45430000D02*
X67295000Y-45430000D01*
X67945000Y-48550000D02*
X67295000Y-48550000D01*
X67945000Y-45430000D02*
X68595000Y-45430000D01*
X51054724Y-80122500D02*
X50545276Y-80122500D01*
X51054724Y-81167500D02*
X50545276Y-81167500D01*
X49903748Y-54710000D02*
X50426252Y-54710000D01*
X49903748Y-53240000D02*
X50426252Y-53240000D01*
X44160000Y-63500000D02*
X44160000Y-64150000D01*
X47280000Y-63500000D02*
X47280000Y-61825000D01*
X44160000Y-63500000D02*
X44160000Y-62850000D01*
X47280000Y-63500000D02*
X47280000Y-64150000D01*
X49240000Y-77470000D02*
X49240000Y-76820000D01*
X52360000Y-77470000D02*
X52360000Y-75795000D01*
X49240000Y-77470000D02*
X49240000Y-78120000D01*
X52360000Y-77470000D02*
X52360000Y-78120000D01*
X58674724Y-96632500D02*
X58165276Y-96632500D01*
X58674724Y-97677500D02*
X58165276Y-97677500D01*
X58674724Y-99582500D02*
X58165276Y-99582500D01*
X58674724Y-98537500D02*
X58165276Y-98537500D01*
X44450000Y-80665000D02*
X42500000Y-80665000D01*
X44450000Y-75545000D02*
X46400000Y-75545000D01*
X44450000Y-75545000D02*
X41000000Y-75545000D01*
X44450000Y-80665000D02*
X46400000Y-80665000D01*
X56925000Y-112500000D02*
X57525000Y-112500000D01*
X56925000Y-106000000D02*
X56925000Y-112500000D01*
X63725000Y-112500000D02*
X63725000Y-106000000D01*
X63725000Y-106000000D02*
X56925000Y-106000000D01*
X63225000Y-112500000D02*
X63725000Y-112500000D01*
X63500000Y-45430000D02*
X64150000Y-45430000D01*
X63500000Y-45430000D02*
X62850000Y-45430000D01*
X63500000Y-48550000D02*
X65175000Y-48550000D01*
X63500000Y-48550000D02*
X62850000Y-48550000D01*
X45974724Y-51547500D02*
X45465276Y-51547500D01*
X45974724Y-52592500D02*
X45465276Y-52592500D01*
X54348748Y-49430000D02*
X54871252Y-49430000D01*
X54348748Y-50900000D02*
X54871252Y-50900000D01*
X58793748Y-49430000D02*
X59316252Y-49430000D01*
X58793748Y-50900000D02*
X59316252Y-50900000D01*
X59309724Y-52592500D02*
X58800276Y-52592500D01*
X59309724Y-51547500D02*
X58800276Y-51547500D01*
X62752500Y-116459724D02*
X62752500Y-115950276D01*
X61707500Y-116459724D02*
X61707500Y-115950276D01*
X68199724Y-52592500D02*
X67690276Y-52592500D01*
X68199724Y-51547500D02*
X67690276Y-51547500D01*
X68600000Y-118110000D02*
X68600000Y-120060000D01*
X68600000Y-118110000D02*
X68600000Y-116160000D01*
X63480000Y-118110000D02*
X63480000Y-116160000D01*
X63480000Y-118110000D02*
X63480000Y-121560000D01*
X63754724Y-57262500D02*
X63245276Y-57262500D01*
X63754724Y-58307500D02*
X63245276Y-58307500D01*
X54835000Y-112500000D02*
X54835000Y-106000000D01*
X48035000Y-112500000D02*
X48635000Y-112500000D01*
X54335000Y-112500000D02*
X54835000Y-112500000D01*
X48035000Y-106000000D02*
X48035000Y-112500000D01*
X54835000Y-106000000D02*
X48035000Y-106000000D01*
X59400000Y-120015000D02*
X59400000Y-121690000D01*
X62520000Y-120015000D02*
X62520000Y-120665000D01*
X62520000Y-120015000D02*
X62520000Y-119365000D01*
X59400000Y-120015000D02*
X59400000Y-119365000D01*
X54087500Y-63754724D02*
X54087500Y-63245276D01*
X55132500Y-63754724D02*
X55132500Y-63245276D01*
X48160000Y-63761252D02*
X48160000Y-63238748D01*
X49630000Y-63761252D02*
X49630000Y-63238748D01*
X54348748Y-54710000D02*
X54871252Y-54710000D01*
X54348748Y-53240000D02*
X54871252Y-53240000D01*
X63238748Y-53240000D02*
X63761252Y-53240000D01*
X63238748Y-54710000D02*
X63761252Y-54710000D01*
X49784724Y-96632500D02*
X49275276Y-96632500D01*
X49784724Y-97677500D02*
X49275276Y-97677500D01*
%LPC*%
D12*
X50799999Y-62587500D03*
X50799999Y-64412500D03*
D13*
X60092500Y-53975000D03*
X58017500Y-53975000D03*
D14*
X66907500Y-50165000D03*
X68982500Y-50165000D03*
D12*
X50799999Y-58142500D03*
X50799999Y-59967500D03*
D15*
X45442500Y-71120000D03*
X47267500Y-71120000D03*
D16*
X55522500Y-52069999D03*
X53697500Y-52069999D03*
D17*
X45085000Y-68982500D03*
X45085000Y-66907500D03*
D18*
X39420000Y-58420000D03*
D19*
X39420000Y-60960000D03*
X39420000Y-63500000D03*
X39420000Y-66040000D03*
X39420000Y-68580000D03*
X39420000Y-71120000D03*
X39420000Y-73660000D03*
X39420000Y-76200000D03*
X39420000Y-78740000D03*
X39420000Y-81280000D03*
X39420000Y-83820000D03*
X39420000Y-86360000D03*
X39420000Y-88900000D03*
X39420000Y-91440000D03*
X39420000Y-93980000D03*
X39420000Y-96520000D03*
X39420000Y-99060000D03*
X39420000Y-101600000D03*
X39420000Y-104140000D03*
X39420000Y-106680000D03*
X39420000Y-109220000D03*
X39420000Y-111760000D03*
X39420000Y-114300000D03*
X39420000Y-116840000D03*
X39420000Y-119380000D03*
X39420000Y-121920000D03*
X39420000Y-124460000D03*
X39420000Y-127000000D03*
X39420000Y-129540000D03*
X39420000Y-132080000D03*
X39420000Y-134620000D03*
X39420000Y-137160000D03*
X39420000Y-139700000D03*
X39420000Y-142240000D03*
X39420000Y-147320000D03*
X39420000Y-144780000D03*
X39420000Y-149860000D03*
X39420000Y-152400000D03*
X39420000Y-154940000D03*
X39420000Y-157480000D03*
X74980000Y-157480000D03*
X74980000Y-154940000D03*
X74980000Y-152400000D03*
X74980000Y-149860000D03*
X74980000Y-147320000D03*
X74980000Y-144780000D03*
X74980000Y-142240000D03*
X74980000Y-139700000D03*
X74980000Y-137160000D03*
X74980000Y-134620000D03*
X74980000Y-132080000D03*
X74980000Y-129540000D03*
X74980000Y-127000000D03*
X74980000Y-124460000D03*
X74980000Y-121920000D03*
X74980000Y-119380000D03*
X74980000Y-116840000D03*
X74980000Y-114300000D03*
X74980000Y-111760000D03*
X74980000Y-109220000D03*
X74980000Y-106680000D03*
X74980000Y-104140000D03*
X74980000Y-101600000D03*
X74980000Y-99060000D03*
X74980000Y-96520000D03*
X74980000Y-93980000D03*
X74980000Y-91440000D03*
X74980000Y-88900000D03*
X74980000Y-86360000D03*
X74980000Y-83820000D03*
X74980000Y-81280000D03*
X74980000Y-78740000D03*
X74980000Y-76200000D03*
X74980000Y-73660000D03*
X74980000Y-71120000D03*
X74980000Y-68580000D03*
X74980000Y-66040000D03*
X74980000Y-63500000D03*
X74980000Y-60960000D03*
X74980000Y-58420000D03*
D16*
X55522500Y-55880000D03*
X53697500Y-55880000D03*
X50442500Y-99060000D03*
X48617500Y-99060000D03*
D17*
X52705000Y-64537500D03*
X52705000Y-62462500D03*
D20*
X71755000Y-100425000D03*
X71755000Y-96425000D03*
D12*
X59690000Y-115292500D03*
X59690000Y-117117500D03*
D17*
X48895000Y-60092500D03*
X48895000Y-58017500D03*
D15*
X44807500Y-50165000D03*
X46632500Y-50165000D03*
D21*
X51102500Y-47940000D03*
X51102500Y-46040000D03*
X49227500Y-46990000D03*
D12*
X50800000Y-67032500D03*
X50800000Y-68857500D03*
D14*
X66907500Y-53975000D03*
X68982500Y-53975000D03*
D16*
X59967500Y-55880000D03*
X58142500Y-55880000D03*
D22*
X72400000Y-103800000D03*
X71550000Y-103800000D03*
X70700000Y-103800000D03*
X69850000Y-103800000D03*
X69000000Y-103800000D03*
X68150000Y-103800000D03*
X67300000Y-103800000D03*
D23*
X69850000Y-110700000D03*
D15*
X67032500Y-100965000D03*
X68857500Y-100965000D03*
D20*
X71120000Y-116110000D03*
X71120000Y-120110000D03*
D24*
X46670000Y-58117500D03*
X44770000Y-58117500D03*
X45720000Y-59992500D03*
D16*
X68857500Y-99060000D03*
X67032500Y-99060000D03*
D17*
X52705000Y-60092500D03*
X52705000Y-58017500D03*
X48895000Y-68982500D03*
X48895000Y-66907500D03*
D14*
X62462500Y-50165000D03*
X64537500Y-50165000D03*
D15*
X67032500Y-97155000D03*
X68857500Y-97155000D03*
D21*
X59992500Y-47940000D03*
X59992500Y-46040000D03*
X58117500Y-46990000D03*
D12*
X56515000Y-58142500D03*
X56515000Y-59967500D03*
X54610000Y-58142500D03*
X54610000Y-59967500D03*
D14*
X49127500Y-50165000D03*
X51202500Y-50165000D03*
X44682500Y-53975000D03*
X46757500Y-53975000D03*
D21*
X46657500Y-47940000D03*
X46657500Y-46040000D03*
X44782500Y-46990000D03*
D20*
X43180000Y-92170000D03*
X43180000Y-88170000D03*
D15*
X48617500Y-100965000D03*
X50442500Y-100965000D03*
D12*
X46989999Y-67032500D03*
X46989999Y-68857500D03*
D16*
X64412500Y-55880000D03*
X62587500Y-55880000D03*
X51077500Y-52070000D03*
X49252500Y-52070000D03*
D25*
X42450000Y-82550000D03*
X46450000Y-82550000D03*
D21*
X55547500Y-47940000D03*
X55547500Y-46040000D03*
X53672500Y-46990000D03*
D15*
X57507500Y-100965000D03*
X59332500Y-100965000D03*
D16*
X68857500Y-55880000D03*
X67032500Y-55880000D03*
X64412500Y-52070000D03*
X62587500Y-52070000D03*
D15*
X49252500Y-55880000D03*
X51077500Y-55880000D03*
D26*
X52705000Y-68857500D03*
X52705000Y-67032500D03*
D21*
X68882500Y-47940000D03*
X68882500Y-46040000D03*
X67007500Y-46990000D03*
D16*
X51712500Y-80645000D03*
X49887500Y-80645000D03*
D14*
X49127500Y-53975000D03*
X51202500Y-53975000D03*
D24*
X46670000Y-62562500D03*
X44770000Y-62562500D03*
X45720000Y-64437500D03*
X51750000Y-76532500D03*
X49850000Y-76532500D03*
X50800000Y-78407500D03*
D16*
X59332500Y-97155000D03*
X57507500Y-97155000D03*
X59332500Y-99060000D03*
X57507500Y-99060000D03*
D27*
X41875000Y-76200000D03*
X41875000Y-77470000D03*
X41875000Y-78740000D03*
X41875000Y-80010000D03*
X47025000Y-80010000D03*
X47025000Y-78740000D03*
X47025000Y-77470000D03*
X47025000Y-76200000D03*
D22*
X62875000Y-103800000D03*
X62025000Y-103800000D03*
X61175000Y-103800000D03*
X60325000Y-103800000D03*
X59475000Y-103800000D03*
X58625000Y-103800000D03*
X57775000Y-103800000D03*
D23*
X60325000Y-110700000D03*
D21*
X64437500Y-47940000D03*
X64437500Y-46040000D03*
X62562500Y-46990000D03*
D16*
X46632500Y-52070000D03*
X44807500Y-52070000D03*
D14*
X53572500Y-50165000D03*
X55647500Y-50165000D03*
X58017500Y-50165000D03*
X60092500Y-50165000D03*
D16*
X59967500Y-52070000D03*
X58142500Y-52070000D03*
D26*
X62230000Y-117117500D03*
X62230000Y-115292500D03*
D16*
X68857500Y-52070000D03*
X67032500Y-52070000D03*
D28*
X64135000Y-120685000D03*
X65405000Y-120685000D03*
X66675000Y-120685000D03*
X67945000Y-120685000D03*
X67945000Y-115535000D03*
X66675000Y-115535000D03*
X65405000Y-115535000D03*
X64135000Y-115535000D03*
D16*
X64412500Y-57785000D03*
X62587500Y-57785000D03*
D22*
X53985000Y-103800000D03*
X53135000Y-103800000D03*
X52285000Y-103800000D03*
X51435000Y-103800000D03*
X50585000Y-103800000D03*
X49735000Y-103800000D03*
X48885000Y-103800000D03*
D23*
X51435000Y-110700000D03*
D29*
X60010000Y-120952500D03*
X61910000Y-120952500D03*
X60960000Y-119077500D03*
D26*
X54610000Y-64412500D03*
X54610000Y-62587500D03*
D17*
X48895000Y-64537500D03*
X48895000Y-62462500D03*
D14*
X53572500Y-53975000D03*
X55647500Y-53975000D03*
X62462500Y-53975000D03*
X64537500Y-53975000D03*
D16*
X50442500Y-97155000D03*
X48617500Y-97155000D03*
D30*
X96520000Y-71755000D03*
D19*
X93980000Y-88900000D03*
X93980000Y-91440000D03*
X93980000Y-93980000D03*
X93980000Y-96520000D03*
X93980000Y-99060000D03*
X93980000Y-101600000D03*
X93980000Y-104140000D03*
X93980000Y-106680000D03*
X93980000Y-109220000D03*
X93980000Y-111760000D03*
X93980000Y-114300000D03*
X93980000Y-116840000D03*
X93980000Y-129540000D03*
X93980000Y-132080000D03*
X93980000Y-134620000D03*
X93980000Y-139700000D03*
X93980000Y-142240000D03*
X93980000Y-144780000D03*
X93980000Y-149860000D03*
X93980000Y-152400000D03*
X93980000Y-154940000D03*
X93980000Y-157480000D03*
X83820000Y-160020000D03*
X81280000Y-160020000D03*
X78740000Y-160020000D03*
X76200000Y-160020000D03*
X73660000Y-160020000D03*
X45720000Y-152400000D03*
X45720000Y-149860000D03*
X45720000Y-134620000D03*
X45720000Y-132080000D03*
X45720000Y-116840000D03*
X45720000Y-114300000D03*
X45720000Y-99060000D03*
X45720000Y-96520000D03*
D30*
X96520000Y-57785000D03*
X96520000Y-78740000D03*
X96520000Y-64770000D03*
D19*
X41910000Y-69850000D03*
X41910000Y-67310000D03*
X41910000Y-64770000D03*
X41910000Y-62230000D03*
X41910000Y-59690000D03*
X41910000Y-57150000D03*
X41910000Y-54610000D03*
X41910000Y-52070000D03*
X41910000Y-49530000D03*
X41910000Y-46990000D03*
X45720000Y-43180000D03*
X48260000Y-43180000D03*
X50800000Y-43180000D03*
X53340000Y-43180000D03*
X55880000Y-43180000D03*
X58420000Y-43180000D03*
X60960000Y-43180000D03*
X63500000Y-43180000D03*
X66040000Y-43180000D03*
X68580000Y-43180000D03*
X72390000Y-46990000D03*
X72390000Y-49530000D03*
X72390000Y-52070000D03*
X72390000Y-54610000D03*
X72390000Y-57150000D03*
X72390000Y-59690000D03*
X72390000Y-62230000D03*
X72390000Y-64770000D03*
X72390000Y-67310000D03*
X72390000Y-69850000D03*
X68580000Y-73660000D03*
X66040000Y-73660000D03*
X63500000Y-73660000D03*
X60960000Y-73660000D03*
X58420000Y-73660000D03*
X55880000Y-73660000D03*
X53340000Y-73660000D03*
X50800000Y-73660000D03*
X48260000Y-73660000D03*
X45720000Y-73660000D03*
D30*
X96520000Y-50800000D03*
D31*
X58420000Y-79572500D03*
D32*
X60960000Y-79572500D03*
X63500000Y-79572500D03*
D30*
X96520000Y-43815000D03*
M02*
