G04 #@! TF.GenerationSoftware,KiCad,Pcbnew,(6.0.9)*
G04 #@! TF.CreationDate,2023-07-15T07:21:25-07:00*
G04 #@! TF.ProjectId,canbuz-1977-vw-bus-ecu,63616e62-757a-42d3-9139-37372d76772d,rev?*
G04 #@! TF.SameCoordinates,Original*
G04 #@! TF.FileFunction,Paste,Top*
G04 #@! TF.FilePolarity,Positive*
%FSLAX46Y46*%
G04 Gerber Fmt 4.6, Leading zero omitted, Abs format (unit mm)*
G04 Created by KiCad (PCBNEW (6.0.9)) date 2023-07-15 07:21:25*
%MOMM*%
%LPD*%
G01*
G04 APERTURE LIST*
G04 Aperture macros list*
%AMRoundRect*
0 Rectangle with rounded corners*
0 $1 Rounding radius*
0 $2 $3 $4 $5 $6 $7 $8 $9 X,Y pos of 4 corners*
0 Add a 4 corners polygon primitive as box body*
4,1,4,$2,$3,$4,$5,$6,$7,$8,$9,$2,$3,0*
0 Add four circle primitives for the rounded corners*
1,1,$1+$1,$2,$3*
1,1,$1+$1,$4,$5*
1,1,$1+$1,$6,$7*
1,1,$1+$1,$8,$9*
0 Add four rect primitives between the rounded corners*
20,1,$1+$1,$2,$3,$4,$5,0*
20,1,$1+$1,$4,$5,$6,$7,0*
20,1,$1+$1,$6,$7,$8,$9,0*
20,1,$1+$1,$8,$9,$2,$3,0*%
G04 Aperture macros list end*
%ADD10RoundRect,0.237500X-0.237500X0.250000X-0.237500X-0.250000X0.237500X-0.250000X0.237500X0.250000X0*%
%ADD11RoundRect,0.250000X0.337500X0.475000X-0.337500X0.475000X-0.337500X-0.475000X0.337500X-0.475000X0*%
%ADD12RoundRect,0.250000X-0.337500X-0.475000X0.337500X-0.475000X0.337500X0.475000X-0.337500X0.475000X0*%
%ADD13RoundRect,0.237500X-0.250000X-0.237500X0.250000X-0.237500X0.250000X0.237500X-0.250000X0.237500X0*%
%ADD14RoundRect,0.237500X0.250000X0.237500X-0.250000X0.237500X-0.250000X-0.237500X0.250000X-0.237500X0*%
%ADD15RoundRect,0.250000X0.475000X-0.337500X0.475000X0.337500X-0.475000X0.337500X-0.475000X-0.337500X0*%
%ADD16R,1.800000X2.500000*%
%ADD17RoundRect,0.150000X0.587500X0.150000X-0.587500X0.150000X-0.587500X-0.150000X0.587500X-0.150000X0*%
%ADD18RoundRect,0.137500X0.137500X1.112500X-0.137500X1.112500X-0.137500X-1.112500X0.137500X-1.112500X0*%
%ADD19RoundRect,0.265000X2.385000X2.485000X-2.385000X2.485000X-2.385000X-2.485000X2.385000X-2.485000X0*%
%ADD20RoundRect,0.150000X-0.150000X0.587500X-0.150000X-0.587500X0.150000X-0.587500X0.150000X0.587500X0*%
%ADD21R,2.500000X1.800000*%
%ADD22RoundRect,0.237500X0.237500X-0.250000X0.237500X0.250000X-0.237500X0.250000X-0.237500X-0.250000X0*%
%ADD23RoundRect,0.150000X-0.725000X-0.150000X0.725000X-0.150000X0.725000X0.150000X-0.725000X0.150000X0*%
%ADD24RoundRect,0.150000X0.150000X-0.725000X0.150000X0.725000X-0.150000X0.725000X-0.150000X-0.725000X0*%
%ADD25RoundRect,0.150000X0.150000X-0.587500X0.150000X0.587500X-0.150000X0.587500X-0.150000X-0.587500X0*%
G04 APERTURE END LIST*
D10*
X50799999Y-62587500D03*
X50799999Y-64412500D03*
D11*
X60092500Y-53975000D03*
X58017500Y-53975000D03*
D12*
X66907500Y-50165000D03*
X68982500Y-50165000D03*
D10*
X50799999Y-58142500D03*
X50799999Y-59967500D03*
D13*
X45442500Y-71120000D03*
X47267500Y-71120000D03*
D14*
X55522500Y-52069999D03*
X53697500Y-52069999D03*
D15*
X45085000Y-68982500D03*
X45085000Y-66907500D03*
D14*
X55522500Y-55880000D03*
X53697500Y-55880000D03*
X50442500Y-99060000D03*
X48617500Y-99060000D03*
D15*
X52705000Y-64537500D03*
X52705000Y-62462500D03*
D16*
X71755000Y-100425000D03*
X71755000Y-96425000D03*
D10*
X59690000Y-115292500D03*
X59690000Y-117117500D03*
D15*
X48895000Y-60092500D03*
X48895000Y-58017500D03*
D13*
X44807500Y-50165000D03*
X46632500Y-50165000D03*
D17*
X51102500Y-47940000D03*
X51102500Y-46040000D03*
X49227500Y-46990000D03*
D10*
X50800000Y-67032500D03*
X50800000Y-68857500D03*
D12*
X66907500Y-53975000D03*
X68982500Y-53975000D03*
D14*
X59967500Y-55880000D03*
X58142500Y-55880000D03*
D18*
X72400000Y-103800000D03*
X71550000Y-103800000D03*
X70700000Y-103800000D03*
X69850000Y-103800000D03*
X69000000Y-103800000D03*
X68150000Y-103800000D03*
X67300000Y-103800000D03*
D19*
X69850000Y-110700000D03*
D13*
X67032500Y-100965000D03*
X68857500Y-100965000D03*
D16*
X71120000Y-116110000D03*
X71120000Y-120110000D03*
D20*
X46670000Y-58117500D03*
X44770000Y-58117500D03*
X45720000Y-59992500D03*
D14*
X68857500Y-99060000D03*
X67032500Y-99060000D03*
D15*
X52705000Y-60092500D03*
X52705000Y-58017500D03*
X48895000Y-68982500D03*
X48895000Y-66907500D03*
D12*
X62462500Y-50165000D03*
X64537500Y-50165000D03*
D13*
X67032500Y-97155000D03*
X68857500Y-97155000D03*
D17*
X59992500Y-47940000D03*
X59992500Y-46040000D03*
X58117500Y-46990000D03*
D10*
X56515000Y-58142500D03*
X56515000Y-59967500D03*
X54610000Y-58142500D03*
X54610000Y-59967500D03*
D12*
X49127500Y-50165000D03*
X51202500Y-50165000D03*
X44682500Y-53975000D03*
X46757500Y-53975000D03*
D17*
X46657500Y-47940000D03*
X46657500Y-46040000D03*
X44782500Y-46990000D03*
D16*
X43180000Y-92170000D03*
X43180000Y-88170000D03*
D13*
X48617500Y-100965000D03*
X50442500Y-100965000D03*
D10*
X46989999Y-67032500D03*
X46989999Y-68857500D03*
D14*
X64412500Y-55880000D03*
X62587500Y-55880000D03*
X51077500Y-52070000D03*
X49252500Y-52070000D03*
D21*
X42450000Y-82550000D03*
X46450000Y-82550000D03*
D17*
X55547500Y-47940000D03*
X55547500Y-46040000D03*
X53672500Y-46990000D03*
D13*
X57507500Y-100965000D03*
X59332500Y-100965000D03*
D14*
X68857500Y-55880000D03*
X67032500Y-55880000D03*
X64412500Y-52070000D03*
X62587500Y-52070000D03*
D13*
X49252500Y-55880000D03*
X51077500Y-55880000D03*
D22*
X52705000Y-68857500D03*
X52705000Y-67032500D03*
D17*
X68882500Y-47940000D03*
X68882500Y-46040000D03*
X67007500Y-46990000D03*
D14*
X51712500Y-80645000D03*
X49887500Y-80645000D03*
D12*
X49127500Y-53975000D03*
X51202500Y-53975000D03*
D20*
X46670000Y-62562500D03*
X44770000Y-62562500D03*
X45720000Y-64437500D03*
X51750000Y-76532500D03*
X49850000Y-76532500D03*
X50800000Y-78407500D03*
D14*
X59332500Y-97155000D03*
X57507500Y-97155000D03*
X59332500Y-99060000D03*
X57507500Y-99060000D03*
D23*
X41875000Y-76200000D03*
X41875000Y-77470000D03*
X41875000Y-78740000D03*
X41875000Y-80010000D03*
X47025000Y-80010000D03*
X47025000Y-78740000D03*
X47025000Y-77470000D03*
X47025000Y-76200000D03*
D18*
X62875000Y-103800000D03*
X62025000Y-103800000D03*
X61175000Y-103800000D03*
X60325000Y-103800000D03*
X59475000Y-103800000D03*
X58625000Y-103800000D03*
X57775000Y-103800000D03*
D19*
X60325000Y-110700000D03*
D17*
X64437500Y-47940000D03*
X64437500Y-46040000D03*
X62562500Y-46990000D03*
D14*
X46632500Y-52070000D03*
X44807500Y-52070000D03*
D12*
X53572500Y-50165000D03*
X55647500Y-50165000D03*
X58017500Y-50165000D03*
X60092500Y-50165000D03*
D14*
X59967500Y-52070000D03*
X58142500Y-52070000D03*
D22*
X62230000Y-117117500D03*
X62230000Y-115292500D03*
D14*
X68857500Y-52070000D03*
X67032500Y-52070000D03*
D24*
X64135000Y-120685000D03*
X65405000Y-120685000D03*
X66675000Y-120685000D03*
X67945000Y-120685000D03*
X67945000Y-115535000D03*
X66675000Y-115535000D03*
X65405000Y-115535000D03*
X64135000Y-115535000D03*
D14*
X64412500Y-57785000D03*
X62587500Y-57785000D03*
D18*
X53985000Y-103800000D03*
X53135000Y-103800000D03*
X52285000Y-103800000D03*
X51435000Y-103800000D03*
X50585000Y-103800000D03*
X49735000Y-103800000D03*
X48885000Y-103800000D03*
D19*
X51435000Y-110700000D03*
D25*
X60010000Y-120952500D03*
X61910000Y-120952500D03*
X60960000Y-119077500D03*
D22*
X54610000Y-64412500D03*
X54610000Y-62587500D03*
D15*
X48895000Y-64537500D03*
X48895000Y-62462500D03*
D12*
X53572500Y-53975000D03*
X55647500Y-53975000D03*
X62462500Y-53975000D03*
X64537500Y-53975000D03*
D14*
X50442500Y-97155000D03*
X48617500Y-97155000D03*
M02*
